<svg width="17" height="17" viewBox="0 0 17 17" fill="none" xmlns="http://www.w3.org/2000/svg">
<path d="M0.707107 9.19239C0.494975 8.98026 0.424264 8.76812 0.424264 8.48528C0.424263 7.9196 0.848529 7.49533 1.41421 7.49533L15.5563 7.49533C16.122 7.49533 16.5463 7.9196 16.5463 8.48528C16.5463 9.05097 16.122 9.47523 15.5564 9.47523L1.41421 9.47523C1.13137 9.47523 0.919239 9.40452 0.707107 9.19239Z" fill="#102C41"/>
<path d="M8.48521 15.5563C8.06094 15.132 8.06094 14.5663 8.48521 14.1421L14.1421 8.48521L8.48521 2.82835C8.06094 2.40409 8.06094 1.8384 8.48521 1.41414C8.90947 0.989874 9.47516 0.989874 9.89942 1.41414L16.2634 7.7781C16.6876 8.20236 16.6876 8.76805 16.2634 9.19231L9.89942 15.5563C9.47515 15.9805 8.90947 15.9805 8.48521 15.5563Z" fill="#102C41"/>
</svg>
