<svg width="21" height="24" viewBox="0 0 21 24" fill="none" xmlns="http://www.w3.org/2000/svg">
<path d="M16.8534 24.0001H7.66191V21.4468H6.21301C4.72619 21.4408 3.39639 20.5197 2.86831 19.1299L2.33215 17.6937C2.29571 17.5962 2.23032 17.5121 2.14476 17.4528C2.0592 17.3935 1.95754 17.3617 1.85342 17.3618H1.53426C1.31129 17.3621 1.09094 17.3138 0.888585 17.2201C0.686234 17.1265 0.506762 16.9898 0.362701 16.8196C0.21864 16.6494 0.113463 16.4498 0.0545133 16.2348C-0.00443646 16.0198 -0.0157378 15.7945 0.0213984 15.5746C0.142755 14.8468 0.812966 14.2979 1.58529 14.2979H2.73422C3.23395 14.2973 3.72288 14.4433 4.14042 14.7179C4.55796 14.9925 4.88575 15.3835 5.08317 15.8426L5.68962 17.2533C5.76832 17.4369 5.89914 17.5935 6.06589 17.7035C6.23263 17.8136 6.42798 17.8723 6.62777 17.8725H7.66191C7.75129 16.6212 8.16605 15.6321 8.87461 14.9362L9.01502 14.8021C5.77244 13.7298 3.57687 11.1 3.57687 8.1703C3.5835 6.97164 3.93829 5.80074 4.59808 4.79999V2.67451C4.59787 1.84396 4.79015 1.02465 5.15982 0.280899L5.30664 3.233e-05H6.1874C6.72436 -0.00211049 7.25642 0.102286 7.75277 0.307177C8.24911 0.512069 8.69988 0.813385 9.07898 1.19368L9.32154 1.4362C11.2435 0.877635 13.2847 0.877635 15.2066 1.4362L15.4492 1.19368C15.8275 0.814162 16.2772 0.513294 16.7724 0.308426C17.2675 0.103559 17.7984 -0.00125372 18.3342 3.233e-05H19.215L19.3554 0.280899C19.7251 1.02465 19.9174 1.84395 19.9172 2.67451V4.79999C20.577 5.80074 20.9318 6.97164 20.9384 8.1703C20.9384 11.1001 18.7427 13.7298 15.5002 14.8021L15.6214 14.9234C16.0101 15.3048 16.3192 15.7597 16.5307 16.2615C16.7422 16.7634 16.8519 17.3023 16.8534 17.8469V24.0001ZM8.68312 22.9787H15.8322V17.8468C15.8304 17.4388 15.7477 17.0352 15.5888 16.6593C15.4299 16.2835 15.198 15.943 14.9065 15.6574L13.4896 14.2723L14.396 14.0617C17.6448 13.2958 19.9172 10.8766 19.9172 8.1703C19.9101 7.1219 19.5851 6.10033 18.9852 5.24052L18.896 5.11284V2.67451C18.8961 2.10755 18.7855 1.54601 18.5704 1.02144H18.3342C17.932 1.02103 17.5337 1.10034 17.1623 1.2548C16.7909 1.40925 16.4538 1.63578 16.1704 1.92129L15.481 2.60443L15.181 2.50212C13.2806 1.88745 11.2347 1.88745 9.33423 2.50212L9.03431 2.60438L8.34481 1.92124C8.06148 1.63574 7.72437 1.40922 7.35298 1.25477C6.98158 1.10033 6.58326 1.02102 6.18103 1.02144H5.94487C5.72976 1.54601 5.61916 2.10755 5.6193 2.67451V5.11284L5.52992 5.24056C4.93015 6.10042 4.60524 7.12195 4.59808 8.1703C4.59808 10.8766 6.87034 13.2958 10.1193 14.0554L11.0257 14.266L9.58949 15.6704C9.05973 16.1872 8.75344 16.9532 8.67675 17.9553C8.63376 18.4843 8.19262 18.892 7.66186 18.8937H6.62782C6.22818 18.8935 5.83739 18.7761 5.50383 18.5559C5.17027 18.3358 4.9086 18.0227 4.75123 17.6554L4.15134 16.2448C4.0326 15.9694 3.83563 15.7349 3.58486 15.5703C3.33408 15.4058 3.04053 15.3184 2.74059 15.3192H1.59166C1.31716 15.3192 1.07464 15.5043 1.03643 15.7404C1.0101 15.8884 1.05032 16.0404 1.14621 16.156C1.1936 16.2131 1.25287 16.2592 1.31988 16.291C1.3869 16.3229 1.46005 16.3398 1.53426 16.3406H1.84691C2.15905 16.3412 2.46361 16.4367 2.72014 16.6146C2.97666 16.7924 3.17301 17.0441 3.28308 17.3362L3.81944 18.766C4.19553 19.7623 5.14809 20.4226 6.21305 20.4256H7.66196C8.22594 20.4256 8.68317 20.8828 8.68317 21.4468L8.68312 22.9787Z" fill="white"/>
</svg>
