<svg width="20" height="20" viewBox="0 0 20 20" fill="none" xmlns="http://www.w3.org/2000/svg">
<path d="M15.6399 6.86668C15.5732 6.73336 15.4732 6.66668 15.3399 6.66668H11.4066L15.3066 0.5C15.3733 0.4 15.3733 0.26668 15.3066 0.16668C15.2399 0.0666797 15.1399 0 15.0066 0H9.67325C9.53993 0 9.43993 0.0666797 9.37325 0.16668L4.37325 10.1667C4.30657 10.2667 4.30657 10.4 4.37325 10.5C4.43993 10.6 4.57325 10.6667 4.67325 10.6667H8.10657L4.37325 19.5667C4.30657 19.7 4.37325 19.8667 4.50657 19.9667C4.53989 20 4.60657 20 4.67325 20C4.77325 20 4.87325 19.9667 4.93993 19.9L15.6066 7.23332C15.6733 7.13332 15.7066 7 15.6399 6.86668ZM5.83989 17.7667L8.90657 10.4334C8.93989 10.3334 8.93989 10.2334 8.87325 10.1334C8.80657 10.0667 8.70657 10 8.60657 10H5.20657L9.87325 0.66668H14.4066L10.4733 6.83332C10.4066 6.93332 10.4066 7.06664 10.4733 7.16664C10.5399 7.26664 10.6399 7.33332 10.7733 7.33332H14.6399L5.83989 17.7667Z" fill="#8A8A8A"/>
</svg>
