<svg width="20" height="20" viewBox="0 0 20 20" fill="none" xmlns="http://www.w3.org/2000/svg">
<path d="M10.0004 0C5.92652 0 2.6123 3.31421 2.6123 7.38809C2.6123 8.72925 3.21378 10.1717 3.23899 10.2325C3.43325 10.6936 3.81656 11.4098 4.09297 11.8296L9.15859 19.505C9.36589 19.8196 9.67271 20 10.0004 20C10.3281 20 10.6349 19.8196 10.8422 19.5054L15.9083 11.8296C16.1851 11.4098 16.568 10.6936 16.7622 10.2325C16.7874 10.1721 17.3885 8.72968 17.3885 7.38809C17.3885 3.31421 14.0743 0 10.0004 0ZM15.9608 9.89526C15.7874 10.3086 15.4306 10.9748 15.1825 11.3512L10.1164 19.0269C10.0165 19.1786 9.98475 19.1786 9.8848 19.0269L4.81874 11.3512C4.57058 10.9748 4.21378 10.3081 4.04038 9.89483C4.03299 9.87701 3.48149 8.54933 3.48149 7.38809C3.48149 3.79357 6.40587 0.869187 10.0004 0.869187C13.5949 0.869187 16.5193 3.79357 16.5193 7.38809C16.5193 8.55106 15.9665 9.88223 15.9608 9.89526Z" fill="#8A8A8A"/>
<path d="M10.0002 3.47705C7.84332 3.47705 6.08887 5.23194 6.08887 7.38839C6.08887 9.54485 7.84332 11.2997 10.0002 11.2997C12.1571 11.2997 13.9116 9.54485 13.9116 7.38839C13.9116 5.23194 12.1571 3.47705 10.0002 3.47705ZM10.0002 10.4305C8.32311 10.4305 6.95805 9.06592 6.95805 7.38839C6.95805 5.71086 8.32311 4.34624 10.0002 4.34624C11.6773 4.34624 13.0424 5.71086 13.0424 7.38839C13.0424 9.06592 11.6773 10.4305 10.0002 10.4305Z" fill="#8A8A8A"/>
</svg>
