<svg width="34" height="34" viewBox="0 0 34 34" fill="none" xmlns="http://www.w3.org/2000/svg">
<path d="M5.1 22.6667C2.56523 22.6667 0 23.4453 0 24.9333V31.7333C0 33.2214 2.56523 34 5.1 34C7.63477 34 10.2 33.2214 10.2 31.7333V24.9333C10.2 23.4453 7.63477 22.6667 5.1 22.6667ZM5.1 23.8C7.67656 23.8 9.06667 24.6047 9.06667 24.9333C9.06667 25.262 7.67656 26.0667 5.1 26.0667C2.52344 26.0667 1.13333 25.262 1.13333 24.9333C1.13333 24.6047 2.52344 23.8 5.1 23.8ZM5.1 32.8667C2.52344 32.8667 1.13333 32.062 1.13333 31.7333V30.94C2.37809 31.5024 3.73467 31.7738 5.1 31.7333C6.46533 31.7738 7.82191 31.5024 9.06667 30.94V31.7333C9.06667 32.062 7.67656 32.8667 5.1 32.8667ZM5.1 30.6C2.52344 30.6 1.13333 29.7953 1.13333 29.4667V28.6733C2.37809 29.2358 3.73467 29.5071 5.1 29.4667C6.46533 29.5071 7.82191 29.2358 9.06667 28.6733V29.4667C9.06667 29.7953 7.67656 30.6 5.1 30.6ZM5.1 28.3333C2.52344 28.3333 1.13333 27.5287 1.13333 27.2V26.4067C2.37809 26.9691 3.73467 27.2404 5.1 27.2C6.46533 27.2404 7.82191 26.9691 9.06667 26.4067V27.2C9.06667 27.5287 7.67656 28.3333 5.1 28.3333ZM17 18.1333C14.4652 18.1333 11.9 18.9119 11.9 20.4V31.7333C11.9 33.2214 14.4652 34 17 34C19.5348 34 22.1 33.2214 22.1 31.7333V20.4C22.1 18.9119 19.5348 18.1333 17 18.1333ZM17 19.2667C19.5766 19.2667 20.9667 20.0713 20.9667 20.4C20.9667 20.7287 19.5766 21.5333 17 21.5333C14.4234 21.5333 13.0333 20.7287 13.0333 20.4C13.0333 20.0713 14.4234 19.2667 17 19.2667ZM17 32.8667C14.4234 32.8667 13.0333 32.062 13.0333 31.7333V30.94C14.2781 31.5024 15.6347 31.7738 17 31.7333C18.3653 31.7738 19.7219 31.5024 20.9667 30.94V31.7333C20.9667 32.062 19.5766 32.8667 17 32.8667ZM17 30.6C14.4234 30.6 13.0333 29.7953 13.0333 29.4667V28.6733C14.2781 29.2358 15.6347 29.5071 17 29.4667C18.3653 29.5071 19.7219 29.2358 20.9667 28.6733V29.4667C20.9667 29.7953 19.5766 30.6 17 30.6ZM17 28.3333C14.4234 28.3333 13.0333 27.5287 13.0333 27.2V26.4067C14.2781 26.9691 15.6347 27.2404 17 27.2C18.3653 27.2404 19.7219 26.9691 20.9667 26.4067V27.2C20.9667 27.5287 19.5766 28.3333 17 28.3333ZM17 26.0667C14.4234 26.0667 13.0333 25.262 13.0333 24.9333V24.14C14.2781 24.7024 15.6347 24.9738 17 24.9333C18.3653 24.9738 19.7219 24.7024 20.9667 24.14V24.9333C20.9667 25.262 19.5766 26.0667 17 26.0667ZM17 23.8C14.4234 23.8 13.0333 22.9953 13.0333 22.6667V21.8733C14.2781 22.4358 15.6347 22.7071 17 22.6667C18.3653 22.7071 19.7219 22.4358 20.9667 21.8733V22.6667C20.9667 22.9953 19.5766 23.8 17 23.8ZM28.9 11.3333C26.3652 11.3333 23.8 12.1119 23.8 13.6V31.7333C23.8 33.2214 26.3652 34 28.9 34C31.4348 34 34 33.2214 34 31.7333V13.6C34 12.1119 31.4348 11.3333 28.9 11.3333ZM28.9 12.4667C31.4766 12.4667 32.8667 13.2713 32.8667 13.6C32.8667 13.9287 31.4766 14.7333 28.9 14.7333C26.3234 14.7333 24.9333 13.9287 24.9333 13.6C24.9333 13.2713 26.3234 12.4667 28.9 12.4667ZM28.9 32.8667C26.3234 32.8667 24.9333 32.062 24.9333 31.7333V30.94C26.1781 31.5024 27.5347 31.7738 28.9 31.7333C30.2653 31.7738 31.6219 31.5024 32.8667 30.94V31.7333C32.8667 32.062 31.4766 32.8667 28.9 32.8667ZM28.9 30.6C26.3234 30.6 24.9333 29.7953 24.9333 29.4667V28.6733C26.1781 29.2358 27.5347 29.5071 28.9 29.4667C30.2653 29.5071 31.6219 29.2358 32.8667 28.6733V29.4667C32.8667 29.7953 31.4766 30.6 28.9 30.6ZM28.9 28.3333C26.3234 28.3333 24.9333 27.5287 24.9333 27.2V26.4067C26.1781 26.9691 27.5347 27.2404 28.9 27.2C30.2653 27.2404 31.6219 26.9691 32.8667 26.4067V27.2C32.8667 27.5287 31.4766 28.3333 28.9 28.3333ZM28.9 26.0667C26.3234 26.0667 24.9333 25.262 24.9333 24.9333V24.14C26.1781 24.7024 27.5347 24.9738 28.9 24.9333C30.2653 24.9738 31.6219 24.7024 32.8667 24.14V24.9333C32.8667 25.262 31.4766 26.0667 28.9 26.0667ZM28.9 23.8C26.3234 23.8 24.9333 22.9953 24.9333 22.6667V21.8733C26.1781 22.4358 27.5347 22.7071 28.9 22.6667C30.2653 22.7071 31.6219 22.4358 32.8667 21.8733V22.6667C32.8667 22.9953 31.4766 23.8 28.9 23.8ZM28.9 21.5333C26.3234 21.5333 24.9333 20.7287 24.9333 20.4V19.6067C26.1781 20.1691 27.5347 20.4404 28.9 20.4C30.2653 20.4404 31.6219 20.1691 32.8667 19.6067V20.4C32.8667 20.7287 31.4766 21.5333 28.9 21.5333ZM28.9 19.2667C26.3234 19.2667 24.9333 18.462 24.9333 18.1333V17.34C26.1781 17.9024 27.5347 18.1738 28.9 18.1333C30.2653 18.1738 31.6219 17.9024 32.8667 17.34V18.1333C32.8667 18.462 31.4766 19.2667 28.9 19.2667ZM28.9 17C26.3234 17 24.9333 16.1953 24.9333 15.8667V15.0733C26.1781 15.6358 27.5347 15.9071 28.9 15.8667C30.2653 15.9071 31.6219 15.6358 32.8667 15.0733V15.8667C32.8667 16.1953 31.4766 17 28.9 17ZM27.7667 0V1.13333H32.0654L21.2987 11.9H9.42027L0.193163 19.9734L0.940171 20.8266L9.8464 13.0333H21.7679L32.8667 1.9346V6.23333H34V0H27.7667Z" fill="white"/>
</svg>
