<svg width="35" height="35" viewBox="0 0 35 35" fill="none" xmlns="http://www.w3.org/2000/svg">
<g clip-path="url(#clip0_146_2310)">
<path d="M26.7481 11.7433C26.6341 11.5153 26.463 11.4013 26.235 11.4013H19.5083L26.178 0.855092C26.2921 0.684074 26.2921 0.456071 26.178 0.285053C26.064 0.114035 25.893 0 25.665 0H16.544C16.316 0 16.145 0.114035 16.031 0.285053L7.48006 17.3869C7.36602 17.5579 7.36602 17.7859 7.48006 17.9569C7.59409 18.128 7.82209 18.242 7.99311 18.242H13.8647L7.48006 33.4626C7.36602 33.6906 7.48006 33.9757 7.70806 34.1467C7.76504 34.2037 7.87908 34.2037 7.99311 34.2037C8.16413 34.2037 8.33515 34.1467 8.44918 34.0327L26.6912 12.3703C26.8051 12.1993 26.8621 11.9713 26.7481 11.7433ZM9.98828 30.3843L15.2329 17.843C15.2899 17.672 15.2899 17.5009 15.1759 17.3299C15.0619 17.2159 14.8908 17.1019 14.7198 17.1019H8.90519L16.8861 1.14015H24.6389L17.9122 11.6862C17.7981 11.8573 17.7981 12.0853 17.9122 12.2563C18.0262 12.4273 18.1972 12.5413 18.4252 12.5413H25.038L9.98828 30.3843Z" fill="white"/>
</g>
<defs>
<clipPath id="clip0_146_2310">
<rect width="34.2037" height="34.2037" fill="white"/>
</clipPath>
</defs>
</svg>
