<svg width="21" height="18" viewBox="0 0 21 18" fill="none" xmlns="http://www.w3.org/2000/svg">
<path d="M13.3946 5.2725L18.4571 6.0475C18.9021 6.1175 19.2063 6.36333 19.3696 6.785C19.488 7.23 19.3946 7.61667 19.0896 7.945L15.4321 11.5325L16.2771 16.7C16.3471 17.145 16.1946 17.5083 15.8196 17.79C15.4446 18.0467 15.058 18.07 14.6596 17.86L10.1246 15.47L5.62464 17.86C5.20297 18.07 4.80464 18.0467 4.42964 17.79C4.07797 17.5083 3.92547 17.145 3.97214 16.7L4.85214 11.5325L1.19464 7.945C0.866304 7.61667 0.772971 7.23 0.914637 6.785C1.05464 6.36333 1.34714 6.1175 1.79214 6.0475L6.85464 5.2725L9.10464 0.6325C9.33964 0.234167 9.67964 0.0233333 10.1246 0C10.593 0.0233333 10.933 0.234167 11.1446 0.6325L13.3946 5.2725Z" fill="#DABA12"/>
</svg>
