<svg width="11" height="13" viewBox="0 0 11 13" fill="none" xmlns="http://www.w3.org/2000/svg">
<path d="M3.56333 1.625H6.93833V0.610278C6.96944 0.23713 7.15667 0.0337037 7.5 0C7.84333 0.0337037 8.03111 0.23713 8.06333 0.610278V1.625H9C9.42222 1.64185 9.77389 1.80255 10.055 2.10708C10.3361 2.41162 10.4844 2.79259 10.5 3.25V11.375C10.4844 11.8324 10.3361 12.2134 10.055 12.5179C9.77389 12.8225 9.42222 12.9831 9 13H1.5C1.07778 12.9831 0.726111 12.8225 0.445 12.5179C0.163889 12.2134 0.0155556 11.8324 0 11.375V3.25C0.0155556 2.79259 0.163889 2.41162 0.445 2.10708C0.726111 1.80255 1.07778 1.64185 1.5 1.625H2.43833V0.610278C2.46944 0.23713 2.65667 0.0337037 3 0C3.34333 0.0337037 3.53111 0.23713 3.56333 0.610278V1.625ZM1.125 6.29778H3V4.875H1.125V6.29778ZM1.125 7.51653V9.14153H3V7.51653H1.125ZM4.125 7.51653V9.14153H6.375V7.51653H4.125ZM7.5 7.51653V9.14153H9.375V7.51653H7.5ZM9.375 4.875H7.5V6.29778H9.375V4.875ZM9.375 10.3603H7.5V11.7812H9C9.23444 11.7644 9.35944 11.629 9.375 11.375V10.3603ZM6.375 10.3603H4.125V11.7812H6.375V10.3603ZM3 10.3603H1.125V11.375C1.14056 11.629 1.26556 11.7644 1.5 11.7812H3V10.3603ZM6.375 4.875H4.125V6.29778H6.375V4.875Z" fill="#F6A623"/>
</svg>
