<svg width="138" height="135" viewBox="0 0 138 135" fill="none" xmlns="http://www.w3.org/2000/svg">
<path d="M118.107 115.337C115.363 118.225 112.768 120.088 110.717 121.559C86.6113 138.855 58.0876 133.814 52.0255 132.582C43.0737 130.764 25.7701 127.25 13.2599 112.538C-5.66702 90.2804 -2.71982 55.2141 11.9611 32.0663C14.6465 27.8322 28.8315 4.33189 57.6624 0.563146C75.1105 -1.71761 95.4495 2.88243 110.178 15.2223C141.096 41.1249 138.895 93.4525 118.107 115.337Z" fill="#FFF3DF"/>
<path d="M2.10907 39.1649C2.01344 39.1288 1.94224 39.0406 1.93433 38.934C1.90802 38.5823 1.88882 38.2242 1.8771 37.8696C1.8723 37.724 1.98838 37.6039 2.1365 37.6015C2.4956 37.5934 2.3984 37.9516 2.46941 38.9034C2.48038 39.0488 2.36929 39.1736 2.22148 39.182C2.18208 39.1842 2.14399 39.1781 2.10907 39.1649Z" fill="#91B3FA"/>
<path d="M1.98367 34.5534C2.04938 33.879 2.14327 33.199 2.26278 32.5325C2.28846 32.3894 2.42754 32.2956 2.57349 32.323C2.97092 32.4 2.71176 32.624 2.51788 34.6116C2.50373 34.7564 2.37281 34.8607 2.22524 34.8446C2.07562 34.8282 1.96964 34.6964 1.98367 34.5534ZM3.05371 29.3179C3.25819 28.6689 3.49242 28.016 3.7421 27.4001C3.87582 27.0688 4.36976 27.2842 4.24102 27.6014C3.99265 28.2157 3.76672 28.8457 3.5666 29.4809C3.52296 29.6194 3.37272 29.6952 3.23114 29.6502C3.08794 29.6046 3.01057 29.455 3.05371 29.3179ZM5.17884 24.4188C5.51156 23.8298 5.87258 23.2466 6.252 22.6852C6.44788 22.3959 6.895 22.6938 6.70037 22.9816C6.32862 23.5316 5.97483 24.1031 5.6489 24.6801C5.4774 24.9837 5.00777 24.7214 5.17884 24.4188ZM8.31416 20.4361C8.20176 20.3395 8.18885 20.1728 8.28555 20.0638C8.73522 19.556 9.21164 19.0594 9.70159 18.5878C9.95352 18.3454 10.3318 18.725 10.0801 18.9674C9.6001 19.4295 9.13315 19.916 8.69245 20.4135C8.59595 20.5227 8.42631 20.5327 8.31416 20.4361ZM12.1934 16.808C12.103 16.6913 12.125 16.526 12.2424 16.4389C12.7898 16.033 13.3603 15.6437 13.9381 15.2818C14.2356 15.0963 14.5286 15.5415 14.2313 15.7279C13.665 16.0826 13.106 16.464 12.5697 16.8618C12.4525 16.9487 12.2839 16.9247 12.1934 16.808ZM16.9005 14.1757C16.8377 14.152 16.7836 14.1057 16.7521 14.0413C16.6873 13.9094 16.7429 13.7524 16.8762 13.6907C17.4978 13.4033 18.1381 13.1369 18.7796 12.8987C18.9177 12.8475 19.0732 12.9164 19.1276 13.0529C19.1817 13.1893 19.1139 13.3413 18.976 13.3926C18.3473 13.6259 17.7197 13.8872 17.1105 14.1688C17.0422 14.2003 16.9666 14.2007 16.9005 14.1757ZM21.9658 12.4336C21.8855 12.4033 21.8208 12.3361 21.7983 12.2483C21.7619 12.1065 21.849 11.9644 21.9926 11.9308C22.6613 11.7744 23.3452 11.6422 24.0253 11.538C24.1712 11.5153 24.3101 11.6138 24.335 11.758C24.36 11.9019 24.2618 12.0368 24.1158 12.0591C23.4495 12.1614 22.7794 12.2909 22.1242 12.4442C22.0697 12.4569 22.0148 12.4521 21.9658 12.4336ZM27.1262 11.5082C27.1199 11.3625 27.235 11.2414 27.383 11.2375C28.0717 11.2193 28.771 11.2281 29.4615 11.2632C29.8172 11.2822 29.7955 11.8078 29.4417 11.79C28.7654 11.7555 28.0803 11.7471 27.4055 11.7648C27.2578 11.7688 27.1324 11.654 27.1262 11.5082ZM44.316 17.2379C42.7089 16.0105 42.3475 16.0304 42.568 15.6976C42.6482 15.5763 42.8141 15.5439 42.9388 15.6243C43.519 16.0001 44.0917 16.4035 44.6412 16.8232C44.9233 17.0383 44.5991 17.4536 44.316 17.2379ZM32.5123 11.8588C32.5365 11.7155 32.6746 11.6203 32.8208 11.6463C33.5008 11.7671 34.1856 11.9157 34.8562 12.0881C35.2009 12.1769 35.0721 12.6869 34.7279 12.5983C34.0707 12.4295 33.3995 12.2837 32.7332 12.1653C32.5853 12.1389 32.4884 12.0007 32.5123 11.8588ZM39.758 14.4371C37.9391 13.5579 37.585 13.6483 37.7315 13.276C37.8244 13.0399 38.1105 13.1282 38.0783 13.1296C38.7243 13.3831 39.3672 13.664 39.9888 13.9643C40.1227 14.029 40.1794 14.1872 40.1156 14.3177C40.0547 14.4424 39.9004 14.5037 39.758 14.4371Z" fill="#91B3FA"/>
<path d="M47.5672 20.1774C46.951 19.5192 46.5686 19.2962 46.8249 19.045C46.9288 18.943 47.0988 18.9438 47.2043 19.0484C47.869 19.7035 48.2024 19.9647 47.9465 20.1957C47.8698 20.265 47.6683 20.2849 47.5672 20.1774Z" fill="#91B3FA"/>
<path d="M54.7426 39.4006C54.6353 39.3601 54.5614 39.2547 54.5678 39.1367C54.5865 38.7901 54.598 38.4394 54.6022 38.094C54.604 37.9483 54.7255 37.8336 54.8737 37.8375C55.0216 37.8419 55.1406 37.9626 55.1388 38.1084C55.1345 38.4609 55.1226 38.8188 55.1036 39.1724C55.0957 39.3178 54.9694 39.4276 54.8215 39.4177C54.7939 39.4159 54.7674 39.41 54.7426 39.4006Z" fill="#91B3FA"/>
<path d="M18.5556 61.5501C17.8653 61.2677 17.1787 60.9534 16.515 60.6156C16.3826 60.5483 16.3292 60.389 16.3958 60.2598C16.5835 59.896 16.7355 60.2372 18.7554 61.0636C18.893 61.1198 18.9597 61.2743 18.9045 61.4087C18.8081 61.6435 18.5233 61.5511 18.5556 61.5501ZM21.8182 62.3821C21.9199 61.9863 22.1546 62.2887 24.2902 62.6663C24.4368 62.6915 24.5355 62.8294 24.5114 62.9726C24.4873 63.1159 24.3492 63.2112 24.2031 63.1854C23.4723 63.0562 22.7354 62.8946 22.013 62.705C21.8682 62.667 21.7823 62.5219 21.8182 62.3821ZM13.386 58.7492C12.7746 58.326 12.1728 57.8717 11.598 57.399C11.4835 57.3048 11.4669 57.1384 11.561 57.0272C11.8262 56.7138 11.8978 57.0787 13.6904 58.3193C13.8124 58.4038 13.8432 58.5684 13.7592 58.6871C13.675 58.8058 13.5081 58.8335 13.386 58.7492ZM27.735 63.5603C27.6301 63.5207 27.5567 63.4192 27.5597 63.3033C27.5636 63.1577 27.6868 63.0446 27.8349 63.0506C28.5639 63.0801 29.3013 63.0793 30.0268 63.0483C30.1751 63.042 30.3017 63.1548 30.3104 63.3002C30.3191 63.4459 30.2062 63.5689 30.0583 63.5752C29.3177 63.607 28.565 63.6077 27.8209 63.5776C27.7908 63.5764 27.7618 63.5704 27.735 63.5603ZM33.5158 63.1626C33.4312 63.1307 33.3642 63.0576 33.3452 62.9638C33.3164 62.8206 33.4109 62.6832 33.5563 62.657C34.2698 62.5287 34.9865 62.3686 35.6868 62.1811C35.8293 62.1429 35.9778 62.226 36.0188 62.3666C36.0596 62.5072 35.9774 62.6521 35.8351 62.6902C35.1204 62.8815 34.3888 63.0449 33.6606 63.176C33.6104 63.185 33.5607 63.1795 33.5158 63.1626ZM39.0493 61.5263C38.9836 61.5015 38.9274 61.4517 38.8968 61.3832C38.8369 61.2491 38.8983 61.0943 39.0339 61.0375C39.6997 60.7583 40.3614 60.4476 41.0009 60.1142C41.1311 60.0465 41.2938 60.096 41.365 60.2248C41.4359 60.3537 41.388 60.5132 41.2579 60.581C40.6055 60.9212 39.9302 61.2381 39.2506 61.5231C39.1843 61.551 39.1124 61.5502 39.0493 61.5263ZM44.0704 58.7378C44.023 58.7199 43.9799 58.6886 43.9476 58.6451C43.8597 58.5265 43.8852 58.3618 44.0044 58.2771C44.5905 57.8613 45.1655 57.4154 45.7135 56.952C45.825 56.8576 45.9944 56.871 46.0921 56.9823C46.1898 57.0932 46.1786 57.2597 46.067 57.354C45.5078 57.827 44.921 58.282 44.3228 58.7065C44.2472 58.7601 44.1523 58.7687 44.0704 58.7378ZM48.2539 54.8805C47.9391 54.6073 48.3097 54.5527 49.5931 52.8419C49.8021 52.5631 50.236 52.8801 50.0266 53.1591C49.5887 53.7427 49.1197 54.315 48.6323 54.8597C48.5357 54.9677 48.3665 54.9782 48.2539 54.8805ZM51.5992 50.2636C51.2317 50.0646 51.578 49.9332 52.4434 47.9791C52.5837 47.6623 53.0772 47.8771 52.936 48.1956C52.6407 48.8625 52.3131 49.5237 51.9624 50.1612C51.8914 50.2904 51.7263 50.3336 51.5992 50.2636ZM53.7972 45.0171C53.6674 44.9681 53.5941 44.8289 53.6321 44.6963C53.8292 44.0068 53.9986 43.3033 54.1353 42.6056C54.1633 42.463 54.3039 42.3715 54.4495 42.4011C54.5953 42.4316 54.6902 42.5704 54.6624 42.713C54.5228 43.425 54.35 44.1427 54.1488 44.8462C54.1089 44.9858 53.9609 45.0655 53.8181 45.0241C53.8109 45.0221 53.804 45.0197 53.7972 45.0171Z" fill="#91B3FA"/>
<path d="M8.94245 54.8943C8.30786 54.2091 7.98786 53.9342 8.25456 53.7153C8.53198 53.4875 8.68722 53.8408 9.33683 54.5426C9.43739 54.6512 9.43046 54.8179 9.32155 54.915C9.2127 55.012 9.04294 55.0028 8.94245 54.8943Z" fill="#91B3FA"/>
<path d="M11.8768 48.227L15.6902 47.7548C16.852 49.1215 18.2411 50.3192 19.8256 51.2831C19.9743 54.9601 19.7241 55.2285 20.1171 55.3595L24.512 56.8236C24.6404 56.8663 24.7811 56.8247 24.8622 56.7199L27.1767 53.7321C29.0213 53.9103 30.8486 53.7843 32.5947 53.3862L35.3689 56.0531C35.4661 56.1465 35.6121 56.1699 35.7323 56.1114L39.8463 54.1072C39.9665 54.0487 40.0345 53.921 40.0156 53.7894L39.4775 50.0333C40.8504 48.9118 42.048 47.5643 43.0047 46.0212L46.8527 46.007C46.9878 46.0065 47.1062 45.9219 47.1478 45.7963L48.5709 41.4978C48.6125 41.3722 48.568 41.2332 48.4602 41.1519L45.3851 38.8313C45.5387 37.0206 45.3828 35.2223 44.9514 33.4998C47.5044 30.8207 47.8632 30.8184 47.6766 30.4565C45.5454 26.496 45.6669 26.1589 45.2492 26.2105L41.4358 26.6827C40.2741 25.316 38.8849 24.1183 37.3004 23.1544C37.1518 19.4795 37.4021 19.209 37.0089 19.0779C32.6174 17.6982 32.5125 17.3961 32.2637 17.7175L29.9491 20.7054C28.1046 20.527 26.2772 20.6531 24.5311 21.0511C21.8003 18.5319 21.7645 18.1452 21.3935 18.326C17.3576 20.3809 17.0522 20.2424 17.1102 20.6481L17.6483 24.4041C16.2754 25.5256 15.0779 26.8732 14.1212 28.4162C10.448 28.5052 10.1078 28.2487 9.97802 28.6412C8.64657 32.9187 8.33305 33.0344 8.66565 33.2856L11.7406 35.6062C11.5871 37.4167 11.7431 39.2151 12.1743 40.9377C9.63003 43.6078 9.26183 43.6172 9.44923 43.9811C11.5806 47.9415 11.4592 48.2787 11.8768 48.227Z" fill="#102C41"/>
<path d="M24.0695 36.8605C24.233 34.4271 26.3823 32.6081 28.8606 32.8057C31.3386 33.004 33.2221 35.1437 33.0587 37.5772C32.895 40.0105 30.7458 41.8296 28.2675 41.6321C25.7886 41.4346 23.906 39.2934 24.0695 36.8605ZM28.8076 33.5945C26.796 33.434 25.009 34.896 24.8728 36.9245C24.7384 38.9231 26.285 40.6817 28.3205 40.8434C30.3559 41.0056 32.1212 39.5117 32.2554 37.5132C32.3899 35.5116 30.8393 33.756 28.8076 33.5945Z" fill="#BDD0FB"/>
<path d="M24.643 47.7569C24.0186 47.521 23.4149 47.2336 22.8433 46.8994C22.6715 46.7989 22.6009 46.5942 22.6673 46.4181C22.6752 46.3971 22.6851 46.3765 22.697 46.3566C22.8085 46.1692 23.0555 46.1088 23.2471 46.2209C23.9046 46.6052 24.6081 46.9231 25.3375 47.1666C30.8334 48.9974 36.742 46.2312 38.725 40.9815C38.7756 40.8474 38.8236 40.7116 38.8692 40.5744C40.7053 35.0282 37.5842 29.048 31.9574 27.1718C26.3382 25.2999 20.2597 28.2331 18.4257 33.764C17.3359 37.0567 18.2884 39.2662 18.1603 39.6052C18.022 39.9715 17.4799 39.9286 17.3904 39.5461C16.9012 37.4563 17.01 35.2023 17.8149 33.0713C21.2882 23.8765 34.3729 23.3165 38.9326 32.1586C40.3359 34.8796 40.5854 37.959 39.6348 40.8295C39.5858 40.978 39.5336 41.125 39.4787 41.2707C38.4718 43.9372 36.506 46.087 33.9009 47.3562C31.1536 48.6945 28.0244 48.8931 25.0895 47.9154C24.9395 47.8656 24.7906 47.8126 24.643 47.7569Z" fill="#BDD0FB"/>
<path d="M47.1105 19.8636C47.0525 19.8417 47.0093 19.7882 47.0045 19.7236C46.9886 19.5102 46.9769 19.293 46.9698 19.0778C46.9669 18.9895 47.0373 18.9167 47.1272 18.9151C47.345 18.9103 47.2861 19.1276 47.3292 19.7049C47.3359 19.7931 47.2685 19.8688 47.1788 19.8739C47.1548 19.8753 47.1317 19.8716 47.1105 19.8636Z" fill="#91B3FA"/>
<path d="M47.0349 17.066C47.0748 16.6569 47.1318 16.2444 47.2043 15.84C47.2198 15.7532 47.3042 15.6963 47.3927 15.7129C47.6338 15.7597 47.4766 15.8955 47.359 17.1013C47.3504 17.1892 47.271 17.2524 47.1814 17.2427C47.0907 17.2327 47.0265 17.1527 47.0349 17.066ZM47.6841 13.8898C47.8082 13.4961 47.9502 13.1 48.1017 12.7264C48.1828 12.5254 48.4825 12.6561 48.4044 12.8485C48.2537 13.2211 48.1167 13.6033 47.9953 13.9887C47.9688 14.0728 47.8776 14.1187 47.7918 14.0914C47.7049 14.0637 47.6579 13.973 47.6841 13.8898ZM48.9733 10.9177C49.1752 10.5604 49.3942 10.2066 49.6244 9.86598C49.7432 9.69049 50.0145 9.87116 49.8964 10.0458C49.6708 10.3795 49.4562 10.7262 49.2585 11.0762C49.1545 11.2604 48.8695 11.1013 48.9733 10.9177ZM50.8754 8.50156C50.8072 8.44302 50.7994 8.34184 50.858 8.27575C51.1308 7.96766 51.4198 7.66642 51.7171 7.38027C51.8699 7.2332 52.0994 7.46356 51.9467 7.61056C51.6555 7.89091 51.3723 8.18611 51.1049 8.4879C51.0464 8.55411 50.9434 8.56022 50.8754 8.50156ZM53.2288 6.30056C53.174 6.22974 53.1873 6.12949 53.2586 6.07662C53.5907 5.83037 53.9367 5.59422 54.2873 5.37465C54.4678 5.26212 54.6456 5.53225 54.4651 5.64534C54.1216 5.86055 53.7825 6.0919 53.4571 6.33316C53.3859 6.3859 53.2837 6.37138 53.2288 6.30056ZM56.0844 4.70366C56.0463 4.68925 56.0134 4.66114 55.9943 4.62211C55.9551 4.54207 55.9887 4.44681 56.0697 4.4094C56.4468 4.23503 56.8352 4.07344 57.2244 3.92887C57.3081 3.89782 57.4025 3.93959 57.4354 4.02238C57.4682 4.10517 57.427 4.19738 57.3434 4.22849C56.962 4.37007 56.5813 4.52854 56.2117 4.69942C56.1703 4.71856 56.1245 4.71881 56.0844 4.70366ZM59.1573 3.64677C59.1086 3.62837 59.0693 3.58767 59.0557 3.53436C59.0336 3.44833 59.0865 3.36211 59.1736 3.34173C59.5792 3.2469 59.9941 3.16667 60.4067 3.10339C60.4952 3.08961 60.5795 3.1494 60.5946 3.23687C60.6097 3.32408 60.5502 3.40594 60.4616 3.41953C60.0574 3.48156 59.6509 3.56017 59.2534 3.65313C59.2204 3.66092 59.1871 3.65799 59.1573 3.64677ZM62.2879 3.08531C62.2842 2.99691 62.354 2.92347 62.4438 2.9211C62.8616 2.91013 63.2858 2.91537 63.7047 2.93669C63.9205 2.94828 63.9073 3.26716 63.6928 3.25625C63.2824 3.23537 62.8668 3.23026 62.4574 3.24098C62.3678 3.24341 62.2917 3.17384 62.2879 3.08531ZM72.7164 6.56134C71.7414 5.81678 71.5222 5.82881 71.6559 5.62695C71.7046 5.55332 71.8052 5.53368 71.8809 5.58243C72.2329 5.81048 72.5803 6.05518 72.9136 6.30978C73.0848 6.44027 72.8881 6.69219 72.7164 6.56134ZM65.5555 3.29809C65.5702 3.21112 65.6539 3.15339 65.7426 3.16916C66.1552 3.24248 66.5707 3.33262 66.9774 3.43723C67.1865 3.4911 67.1084 3.8005 66.8996 3.74676C66.5008 3.64427 66.0937 3.55587 65.6895 3.48405C65.5998 3.46797 65.541 3.38412 65.5555 3.29809ZM69.9512 4.86219C68.8478 4.32879 68.633 4.38365 68.7218 4.15779C68.7782 4.01452 68.9517 4.06814 68.9321 4.06895C69.3241 4.22275 69.714 4.39319 70.0912 4.57536C70.1724 4.61457 70.2068 4.71058 70.1681 4.78975C70.1312 4.86537 70.0375 4.90259 69.9512 4.86219Z" fill="#91B3FA"/>
<path d="M74.6878 8.34473C74.314 7.94543 74.082 7.81014 74.2375 7.65778C74.3005 7.59593 74.4036 7.59637 74.4677 7.65989C74.8709 8.05727 75.0731 8.21574 74.9179 8.35589C74.8713 8.3979 74.7491 8.41 74.6878 8.34473Z" fill="#91B3FA"/>
<path d="M79.0429 20.0067C78.9778 19.9821 78.9329 19.9182 78.9368 19.8465C78.9481 19.6363 78.9551 19.4235 78.9576 19.214C78.9588 19.1257 79.0325 19.056 79.1224 19.0584C79.2121 19.061 79.2843 19.1343 79.2833 19.2227C79.2806 19.4366 79.2734 19.6537 79.2619 19.8683C79.2571 19.9564 79.1805 20.0231 79.0907 20.0171C79.074 20.016 79.0579 20.0124 79.0429 20.0067Z" fill="#91B3FA"/>
<path d="M57.0899 33.4439C56.6711 33.2726 56.2546 33.0819 55.852 32.877C55.7716 32.8362 55.7392 32.7395 55.7796 32.6612C55.8935 32.4405 55.9857 32.6474 57.211 33.1488C57.2945 33.1829 57.335 33.2767 57.3015 33.3582C57.2431 33.5005 57.0703 33.4446 57.0899 33.4439ZM59.0692 33.9487C59.1309 33.7086 59.2732 33.892 60.5688 34.121C60.6578 34.1363 60.7176 34.22 60.703 34.3069C60.6884 34.3938 60.6046 34.4517 60.516 34.436C60.0726 34.3576 59.6255 34.2596 59.1873 34.1446C59.0995 34.1215 59.0474 34.0335 59.0692 33.9487ZM53.9537 31.7447C53.5828 31.4879 53.2177 31.2124 52.869 30.9255C52.7995 30.8684 52.7895 30.7674 52.8466 30.7C53.0075 30.5098 53.051 30.7313 54.1385 31.4839C54.2125 31.5351 54.2312 31.6351 54.1802 31.7071C54.1291 31.7791 54.0278 31.7958 53.9537 31.7447ZM62.6587 34.6634C62.5951 34.6394 62.5505 34.5778 62.5524 34.5075C62.5547 34.4192 62.6294 34.3506 62.7193 34.3542C63.1616 34.3721 63.609 34.3716 64.049 34.3528C64.139 34.349 64.2159 34.4173 64.2211 34.5056C64.2264 34.594 64.158 34.6686 64.0682 34.6724C63.6189 34.6917 63.1623 34.6921 62.7109 34.6739C62.6925 34.6732 62.675 34.6695 62.6587 34.6634ZM66.1657 34.4221C66.1143 34.4028 66.0737 34.3584 66.0623 34.3015C66.0448 34.2147 66.1021 34.1313 66.1903 34.1154C66.6232 34.0375 67.0579 33.9404 67.4828 33.8266C67.5693 33.8035 67.6594 33.8539 67.6842 33.9391C67.709 34.0244 67.6591 34.1123 67.5728 34.1354C67.1392 34.2516 66.6954 34.3506 66.2536 34.4302C66.2231 34.4357 66.1929 34.4324 66.1657 34.4221ZM69.5226 33.4295C69.4827 33.4144 69.4486 33.3843 69.4301 33.3427C69.3938 33.2613 69.4311 33.1674 69.5133 33.1329C69.9172 32.9635 70.3187 32.7751 70.7066 32.5728C70.7856 32.5318 70.8843 32.5617 70.9275 32.6399C70.9705 32.7181 70.9414 32.8149 70.8625 32.856C70.4667 33.0625 70.057 33.2547 69.6448 33.4276C69.6045 33.4444 69.5609 33.4439 69.5226 33.4295ZM72.5688 31.7378C72.54 31.727 72.5138 31.708 72.4943 31.6816C72.4409 31.6096 72.4564 31.5097 72.5287 31.4584C72.8843 31.2061 73.2331 30.9356 73.5656 30.6545C73.6333 30.5972 73.736 30.6054 73.7953 30.6729C73.8545 30.7402 73.8478 30.8411 73.7801 30.8984C73.4408 31.1853 73.0848 31.4614 72.7219 31.7189C72.6761 31.7513 72.6184 31.7566 72.5688 31.7378ZM75.1067 29.3977C74.9158 29.2319 75.1406 29.1988 75.9192 28.161C76.046 27.9919 76.3092 28.1842 76.1822 28.3534C75.9165 28.7075 75.6319 29.0547 75.3363 29.3851C75.2777 29.4506 75.175 29.457 75.1067 29.3977ZM77.1362 26.5968C76.9133 26.4761 77.1233 26.3964 77.6484 25.2109C77.7335 25.0187 78.0329 25.149 77.9472 25.3423C77.768 25.7468 77.5693 26.148 77.3565 26.5348C77.3134 26.6131 77.2133 26.6393 77.1362 26.5968ZM78.4696 23.414C78.3909 23.3842 78.3463 23.2998 78.3694 23.2193C78.489 22.801 78.5917 22.3742 78.6746 21.951C78.6917 21.8645 78.7769 21.8089 78.8653 21.8269C78.9538 21.8454 79.0113 21.9296 78.9944 22.0161C78.9098 22.4481 78.805 22.8834 78.6829 23.3102C78.6587 23.395 78.5689 23.4433 78.4822 23.4181C78.4779 23.417 78.4737 23.4155 78.4696 23.414Z" fill="#91B3FA"/>
<path d="M51.2578 29.4062C50.8728 28.9905 50.6787 28.8237 50.8405 28.6909C51.0088 28.5527 51.1029 28.767 51.497 29.1928C51.558 29.2586 51.5538 29.3598 51.4878 29.4187C51.4217 29.4776 51.3188 29.472 51.2578 29.4062Z" fill="#91B3FA"/>
<path d="M53.0369 25.3613L55.3503 25.0748C56.0552 25.9039 56.8979 26.6305 57.8591 27.2153C57.9494 29.446 57.7976 29.6088 58.0361 29.6883L60.7023 30.5765C60.7802 30.6025 60.8655 30.5772 60.9147 30.5136L62.3189 28.701C63.4379 28.8092 64.5465 28.7327 65.6057 28.4913L67.2887 30.1091C67.3478 30.1658 67.4363 30.18 67.5092 30.1445L70.0049 28.9286C70.0779 28.8931 70.1191 28.8157 70.1077 28.7358L69.7812 26.4571C70.6141 25.7768 71.3406 24.9593 71.9211 24.0232L74.2556 24.0145C74.3375 24.0142 74.4093 23.9629 74.4345 23.8867L75.2979 21.279C75.3232 21.2029 75.2962 21.1185 75.2307 21.0692L73.3652 19.6614C73.4584 18.5629 73.3638 17.472 73.1021 16.4269C74.6509 14.8016 74.8686 14.8002 74.7554 14.5807C73.4624 12.178 73.5361 11.9735 73.2828 12.0048L70.9693 12.2913C70.2645 11.4621 69.4218 10.7356 68.4606 10.1508C68.3704 7.92144 68.5222 7.75735 68.2837 7.67774C65.6196 6.8408 65.5559 6.65751 65.405 6.85245L64.0009 8.66512C62.8819 8.5569 61.7732 8.63339 60.714 8.87484C59.0574 7.34652 59.0356 7.11192 58.8105 7.22165C56.3621 8.46824 56.1768 8.38421 56.212 8.63034L56.5385 10.909C55.7056 11.5894 54.9791 12.4069 54.3987 13.343C52.1703 13.397 51.964 13.2414 51.8852 13.4795C51.0775 16.0745 50.8873 16.1447 51.0891 16.297L52.9545 17.7048C52.8614 18.8032 52.956 19.8942 53.2177 20.9393C51.6741 22.5591 51.4508 22.5648 51.5644 22.7855C52.8572 25.188 52.7835 25.3926 53.0369 25.3613Z" fill="#102C41"/>
<path d="M60.4337 18.4656C60.5329 16.9894 61.8368 15.8859 63.3403 16.0057C64.8437 16.1261 65.9863 17.4241 65.8871 18.9004C65.7878 20.3766 64.4841 21.4801 62.9806 21.3604C61.4767 21.2406 60.3345 19.9416 60.4337 18.4656ZM63.3082 16.4843C62.0878 16.387 61.0037 17.2739 60.9211 18.5045C60.8395 19.7169 61.7778 20.7838 63.0127 20.8819C64.2474 20.9803 65.3183 20.074 65.3998 18.8616C65.4814 17.6473 64.5408 16.5823 63.3082 16.4843Z" fill="#BDD0FB"/>
<path d="M60.7822 25.076C60.4033 24.9329 60.0371 24.7585 59.6904 24.5558C59.5862 24.4948 59.5433 24.3706 59.5836 24.2638C59.5884 24.251 59.5944 24.2385 59.6016 24.2264C59.6693 24.1128 59.8191 24.0761 59.9353 24.1441C60.3342 24.3773 60.7609 24.5701 61.2034 24.7179C64.5376 25.8286 68.1221 24.1504 69.3252 20.9655C69.3559 20.8842 69.385 20.8019 69.4126 20.7186C70.5265 17.3539 68.633 13.726 65.2195 12.5878C61.8106 11.4522 58.123 13.2317 57.0104 16.5871C56.3492 18.5846 56.9271 19.9251 56.8494 20.1307C56.7655 20.3529 56.4366 20.3269 56.3823 20.0948C56.0855 18.827 56.1515 17.4596 56.6399 16.1668C58.747 10.5887 66.685 10.249 69.4512 15.6131C70.3025 17.2638 70.4538 19.132 69.8771 20.8735C69.8473 20.9636 69.8157 21.0528 69.7825 21.1412C69.1716 22.7588 67.979 24.063 66.3986 24.833C64.732 25.6449 62.8335 25.7654 61.0531 25.1722C60.9621 25.142 60.8717 25.1098 60.7822 25.076Z" fill="#BDD0FB"/>
<path d="M47.9763 86.8928H29.2136C27.8986 86.8928 26.6846 87.8512 26.6846 88.5159V129.245C26.6846 129.91 27.8986 130.565 29.2136 130.565H47.9763C49.2913 130.565 50.8133 129.91 50.8133 129.245V88.5159C50.8133 87.8512 49.2913 86.8928 47.9763 86.8928Z" fill="#F6A623"/>
<path d="M23.6105 101.828C23.6105 101.484 22.4249 101.128 21.1099 101.128H2.5598C1.24478 101.128 0.0703125 101.484 0.0703125 101.828V129.896C0.0703125 130.24 1.24478 130.565 2.5598 130.565H21.1098C22.4249 130.565 23.6105 130.24 23.6105 129.896L23.6105 101.828Z" fill="#F6A623"/>
<path d="M130.717 34.6072C130.717 33.7622 129.303 33.1248 127.988 33.1248H109.209C107.894 33.1248 106.883 33.7622 106.883 34.6072V128.208C106.883 129.053 107.894 129.988 109.209 129.988H127.988C129.303 129.988 130.717 129.053 130.717 128.208V34.6072Z" fill="#F6A623"/>
<path d="M77.1835 70.2046C77.1835 69.5822 76.0494 69.0066 74.7343 69.0066H56.1843C54.8693 69.0066 53.9375 69.5823 53.9375 70.2046V129.369C53.9375 129.991 54.8693 130.565 56.1843 130.565H74.7343C76.0494 130.565 77.1835 129.991 77.1835 129.369V70.2046Z" fill="#F6A623"/>
<path d="M103.595 51.9255C103.595 51.2271 102.553 50.7625 101.238 50.7625H82.6881C81.373 50.7625 80.3486 51.2271 80.3486 51.9255V129.359C80.3486 130.057 81.373 130.565 82.6881 130.565H101.238C102.553 130.565 103.595 130.057 103.595 129.359V51.9255Z" fill="#F6A623"/>
<path d="M102.064 34.1321L117.08 12.0296C117.516 11.3878 118.427 11.3809 118.872 12.0161L134.352 34.1186C134.885 34.879 134.364 35.9481 133.461 35.9481H102.965C102.069 35.9481 101.547 34.8942 102.064 34.1321Z" fill="#F6A623"/>
<path d="M119.494 99.2843C127.71 99.2843 134.371 92.6234 134.371 84.4068C134.371 76.1902 127.71 69.5293 119.494 69.5293C111.277 69.5293 104.616 76.1902 104.616 84.4068C104.616 92.6234 111.277 99.2843 119.494 99.2843Z" fill="black"/>
<path d="M119.493 98.7896C127.437 98.7896 133.876 92.3502 133.876 84.4068C133.876 76.4633 127.437 70.0239 119.493 70.0239C111.55 70.0239 105.11 76.4633 105.11 84.4068C105.11 92.3502 111.55 98.7896 119.493 98.7896Z" fill="#102C41"/>
<path opacity="0.78" d="M107.633 78.7621C107.583 78.7621 107.533 78.7508 107.485 78.7266C107.322 78.6446 107.257 78.4461 107.339 78.2834C109.669 73.6673 114.326 70.7998 119.494 70.7998C120.318 70.7998 121.144 70.8741 121.948 71.0207C122.127 71.0534 122.246 71.2253 122.213 71.4045C122.181 71.5839 122.009 71.7014 121.83 71.67C121.064 71.5305 120.278 71.4597 119.494 71.4597C114.577 71.4597 110.145 74.1884 107.928 78.5808C107.87 78.6958 107.754 78.7621 107.633 78.7621Z" fill="white"/>
<path opacity="0.78" d="M128.413 93.3282C133.167 88.5743 133.167 80.8666 128.413 76.1127C123.659 71.3588 115.951 71.3588 111.198 76.1127C106.444 80.8666 106.444 88.5743 111.198 93.3282C115.951 98.0821 123.659 98.0821 128.413 93.3282Z" fill="white"/>
<path d="M118.612 93.77V92.4456C117.232 92.3903 115.866 92.0644 114.896 91.6399C114.55 91.4883 114.373 91.0996 114.473 90.7349L114.809 89.5012C114.933 89.0487 115.425 88.8145 115.858 88.9959C116.82 89.3992 118.008 89.7183 119.289 89.7183C120.618 89.7183 121.61 89.2674 121.61 88.3434C121.61 87.5095 120.844 87.0137 118.996 86.5179C116.359 85.7966 114.465 84.6471 114.465 82.3256C114.465 80.2294 115.998 78.6291 118.658 78.201V76.8764C118.658 76.4503 119.003 76.1047 119.429 76.1047H120.207C120.633 76.1047 120.979 76.4502 120.979 76.8764V78.0656C122.257 78.1168 123.187 78.3352 123.925 78.5946C124.303 78.7274 124.509 79.1347 124.404 79.5215L124.095 80.6624C123.976 81.1024 123.505 81.3434 123.079 81.1821C122.4 80.9251 121.439 80.6576 120.19 80.6576C118.612 80.6576 118.162 81.3112 118.162 81.8972C118.162 82.6185 119.108 83.1143 121.159 83.7455C124.089 84.6245 125.306 85.8415 125.306 88.0278C125.306 90.0338 123.819 91.8369 120.934 92.2878V93.7699C120.934 94.1961 120.589 94.5416 120.162 94.5416H119.384C118.958 94.5416 118.612 94.1961 118.612 93.77Z" fill="#102C41"/>
<path d="M133.893 109.019H105.094C104.997 109.019 104.918 108.94 104.918 108.843V103.643C104.918 103.545 104.997 103.466 105.094 103.466H133.893C133.991 103.466 134.07 103.545 134.07 103.643V108.843C134.07 108.94 133.991 109.019 133.893 109.019Z" fill="#102C41"/>
<path d="M133.916 115.288H105.117C105.019 115.288 104.94 115.209 104.94 115.112V109.912C104.94 109.815 105.019 109.736 105.117 109.736H133.916C134.013 109.736 134.092 109.815 134.092 109.912V115.112C134.092 115.209 134.013 115.288 133.916 115.288Z" fill="#102C41"/>
<path d="M133.939 121.558H105.14C105.043 121.558 104.964 121.479 104.964 121.381V116.181C104.964 116.084 105.043 116.005 105.14 116.005H133.939C134.037 116.005 134.116 116.084 134.116 116.181V121.381C134.116 121.479 134.037 121.558 133.939 121.558Z" fill="#102C41"/>
<path d="M133.962 127.665H105.163C105.065 127.665 104.986 127.586 104.986 127.488V122.288C104.986 122.191 105.065 122.112 105.163 122.112H133.962C134.059 122.112 134.138 122.191 134.138 122.288V127.488C134.138 127.586 134.059 127.665 133.962 127.665Z" fill="#102C41"/>
<path d="M133.985 133.772H105.186C105.089 133.772 105.01 133.693 105.01 133.595V128.395C105.01 128.298 105.089 128.219 105.186 128.219H133.985C134.082 128.219 134.161 128.298 134.161 128.395V133.595C134.161 133.693 134.082 133.772 133.985 133.772Z" fill="#102C41"/>
<path d="M87.9136 105.878C96.1303 105.878 102.791 99.2172 102.791 91.0006C102.791 82.7839 96.1303 76.123 87.9136 76.123C79.697 76.123 73.0361 82.7839 73.0361 91.0006C73.0361 99.2172 79.697 105.878 87.9136 105.878Z" fill="black"/>
<path d="M87.9131 105.383C95.8565 105.383 102.296 98.9439 102.296 91.0005C102.296 83.0571 95.8565 76.6177 87.9131 76.6177C79.9697 76.6177 73.5303 83.0571 73.5303 91.0005C73.5303 98.9439 79.9697 105.383 87.9131 105.383Z" fill="#102C41"/>
<path opacity="0.78" d="M76.0533 85.3556C76.0034 85.3556 75.9526 85.3444 75.905 85.3202C75.7422 85.2382 75.677 85.0397 75.7592 84.877C78.089 80.2611 82.7464 77.3936 87.9134 77.3936C88.7385 77.3936 89.5644 77.4678 90.3678 77.6143C90.5472 77.647 90.666 77.8189 90.6333 77.998C90.6006 78.1775 90.4287 78.2963 90.2496 78.2636C89.4849 78.1242 88.6988 78.0535 87.9134 78.0535C82.9968 78.0535 78.5652 80.7821 76.3481 85.1744C76.2901 85.2894 76.174 85.3556 76.0533 85.3556Z" fill="white"/>
<path opacity="0.78" d="M96.8329 99.9215C101.587 95.1676 101.587 87.46 96.8329 82.7061C92.079 77.9521 84.3714 77.9521 79.6175 82.706C74.8636 87.4599 74.8636 95.1675 79.6175 99.9215C84.3714 104.675 92.079 104.675 96.8329 99.9215Z" fill="white"/>
<path d="M87.0323 100.364V99.0393C85.6517 98.984 84.2861 98.6582 83.3162 98.2337C82.9698 98.082 82.7933 97.6934 82.8928 97.3286L83.2292 96.0949C83.3526 95.6424 83.8448 95.4083 84.2774 95.5896C85.2395 95.993 86.4275 96.3121 87.7085 96.3121C89.0383 96.3121 90.03 95.8612 90.03 94.9371C90.03 94.1033 89.2637 93.6074 87.4155 93.1116C84.7785 92.3903 82.8851 91.2408 82.8851 88.9194C82.8851 86.8231 84.4179 85.2229 87.0774 84.7947V83.4702C87.0774 83.044 87.4229 82.6985 87.8491 82.6985H88.6273C89.0534 82.6985 89.399 83.044 89.399 83.4702V84.6594C90.6765 84.7105 91.6065 84.9289 92.3444 85.1883C92.7225 85.3211 92.9292 85.7285 92.8243 86.1153L92.5149 87.2562C92.3956 87.6961 91.9254 87.9371 91.499 87.7758C90.8195 87.5189 89.8588 87.2514 88.6101 87.2514C87.0323 87.2514 86.5816 87.9049 86.5816 88.491C86.5816 89.2122 87.5282 89.708 89.5792 90.3392C92.5094 91.2182 93.7264 92.4353 93.7264 94.6216C93.7264 96.6275 92.2389 98.4307 89.3539 98.8815V100.364C89.3539 100.79 89.0084 101.135 88.5822 101.135H87.804C87.3778 101.135 87.0323 100.79 87.0323 100.364Z" fill="#102C41"/>
<path d="M102.313 114.964H73.5142C73.4168 114.964 73.3379 114.885 73.3379 114.787V109.587C73.3379 109.49 73.4168 109.411 73.5142 109.411H102.313C102.411 109.411 102.49 109.49 102.49 109.587V114.787C102.49 114.885 102.411 114.964 102.313 114.964Z" fill="#102C41"/>
<path d="M102.336 121.233H73.5367C73.4393 121.233 73.3604 121.154 73.3604 121.057V115.857C73.3604 115.759 73.4393 115.68 73.5367 115.68H102.336C102.433 115.68 102.512 115.759 102.512 115.857V121.057C102.512 121.154 102.433 121.233 102.336 121.233Z" fill="#102C41"/>
<path d="M102.358 127.502H73.5591C73.4618 127.502 73.3828 127.423 73.3828 127.326V122.126C73.3828 122.029 73.4618 121.95 73.5591 121.95H102.358C102.456 121.95 102.534 122.029 102.534 122.126V127.326C102.534 127.423 102.456 127.502 102.358 127.502Z" fill="#102C41"/>
<path d="M102.382 133.772H73.5826C73.4852 133.772 73.4062 133.693 73.4062 133.595V128.395C73.4062 128.298 73.4852 128.219 73.5826 128.219H102.382C102.479 128.219 102.558 128.298 102.558 128.395V133.595C102.558 133.693 102.479 133.772 102.382 133.772Z" fill="#102C41"/>
<path d="M55.7982 130.062C55.7982 130.062 55.5281 131.591 55.3956 133.105C55.3438 133.697 55.8 134.211 56.3935 134.235C58.4097 134.319 62.7224 134.483 64.27 134.414C64.5026 134.403 64.6547 134.165 64.5686 133.949C64.4965 133.767 64.3573 133.621 64.18 133.539L57.0561 130.265L55.7982 130.062Z" fill="url(#paint0_linear_271_657)"/>
<path d="M55.5771 129.163L55.7942 130.993C55.7942 130.993 57.0421 131.573 57.8944 130.919L57.3776 128.881L55.5771 129.163Z" fill="url(#paint1_linear_271_657)"/>
<path d="M55.7408 94.7692C55.647 95.247 55.2375 118.61 57.7348 129.08C57.7756 129.251 57.689 129.427 57.5264 129.493C57.1434 129.65 56.3924 129.876 55.4925 129.906C55.2139 129.916 54.964 129.735 54.8854 129.467C54.1715 127.038 50.7509 114.867 50.3046 103.241C49.806 90.2498 50.3046 102.799 50.3046 102.799L50.5971 94.7683L55.7408 94.7692Z" fill="black"/>
<path d="M47.6035 130.86C47.6035 130.86 47.1735 131.632 46.7572 133.684C46.682 134.054 46.9409 134.409 47.3172 134.446C47.9829 134.511 49.0078 134.596 49.8288 134.59C50.2072 134.587 50.5026 134.258 50.457 133.882C50.366 133.133 50.0827 131.904 49.2075 130.947L47.6035 130.86Z" fill="url(#paint2_linear_271_657)"/>
<path d="M47.2256 128.507L47.7327 131.273C47.7327 131.273 48.2342 131.646 49.2263 131.376L48.9842 128.399L47.2256 128.507Z" fill="url(#paint3_linear_271_657)"/>
<path d="M45.8556 95.4861C43.8132 107.813 46.2987 125.952 47.1369 129.502C47.1883 129.72 47.3637 129.886 47.584 129.923C47.9582 129.985 48.5742 130.036 49.1815 129.859C49.3908 129.798 49.5378 129.61 49.5463 129.392C49.6588 126.521 49.4564 108.9 51.3595 101.937C51.4559 101.584 51.6714 101.276 51.9696 101.064L55.6635 98.4378L55.9467 94.1931L45.8556 95.4861Z" fill="black"/>
<path d="M58.8702 72.1298C52.7493 72.0287 45.9955 73.737 45.9955 73.737C44.171 84.383 45.6765 96.6624 45.6765 96.6624C50.4151 97.905 55.7606 95.9026 55.7606 95.9026C56.5482 91.4529 60.223 78.9297 60.223 78.9297C63.2137 78.5585 65.6773 77.6957 67.7062 76.5549C66.1586 74.761 65.429 72.4785 65.1122 71.1292C62.948 71.8017 60.7581 72.161 58.8702 72.1298Z" fill="#8A8A8A"/>
<path d="M76.9505 63.114C76.3492 62.3878 75.5882 62.7314 75.5882 62.7314C74.6874 66.5362 69.9645 69.6212 65.1123 71.1292C65.4292 72.4785 66.1587 74.7611 67.7063 76.555C75.7589 72.0273 76.9505 63.114 76.9505 63.114Z" fill="url(#paint4_linear_271_657)"/>
<path d="M76.8042 63.2987C76.8671 63.4987 76.1386 63.8033 75.7096 62.9852C75.6946 62.5931 75.4562 60.9135 75.6904 60.5942C76.9381 58.8931 79.3572 56.7607 79.3572 56.7607C79.766 57.1642 79.4292 57.5605 79.4292 57.5605L78.2557 58.7829C78.5011 59.2265 78.8005 59.6009 78.9408 60.1375C79.0471 60.5438 78.9821 60.978 78.7769 61.3477C78.5709 61.7188 78.2899 62.2013 78.0242 62.5788C77.5213 63.2933 76.8042 63.2987 76.8042 63.2987Z" fill="url(#paint5_linear_271_657)"/>
<path d="M77.742 59.5762L76.6727 60.4827L76.3369 61.3853L77.2904 62.4431C77.2904 62.4431 77.611 60.6522 77.8493 60.2645C78.0875 59.8769 77.964 59.6896 77.742 59.5762Z" fill="url(#paint6_linear_271_657)"/>
<path d="M48.3432 79.6639L45.9954 73.7371C45.9954 73.7371 40.2782 77.6217 39.3379 82.547C40.4182 82.6266 42.3839 82.9075 44.308 83.8791C44.7309 81.5534 48.3432 79.6639 48.3432 79.6639Z" fill="#8A8A8A"/>
<path d="M53.3399 85.2407C53.3399 85.2407 46.9208 88.8685 44.7549 85.7708C44.3052 85.1276 44.1978 84.4883 44.3085 83.879C42.3844 82.9074 40.4186 82.6264 39.3383 82.5469C39.0549 84.0317 39.2047 85.6108 40.0772 87.2069C43.8711 94.147 54.1894 86.8233 54.1894 86.8233L53.3399 85.2407Z" fill="url(#paint7_linear_271_657)"/>
<path d="M52.5687 89.8304L56.072 77.5961C56.1118 77.4572 56.2303 77.356 56.3738 77.3392C57.0085 77.2652 58.8477 77.0573 60.9713 76.8776C63.5292 76.6613 66.4997 76.486 68.2747 76.6351C68.5271 76.6563 68.6796 76.9232 68.5673 77.1502C67.558 79.1924 63.4059 87.4994 61.3266 90.2206C61.2577 90.3108 61.1512 90.3635 61.0378 90.3625L52.9096 90.2868C52.673 90.2846 52.5036 90.0577 52.5687 89.8304Z" fill="#102C41"/>
<path d="M61.3345 75.8169L63.8744 75.3937C64.0097 75.3711 64.1205 75.5004 64.0775 75.6307L63.8261 76.3925C63.8041 76.4588 63.7463 76.5068 63.6771 76.5161L61.2329 76.8426C61.1064 76.8595 61.0022 76.7446 61.0313 76.6204L61.1869 75.9552C61.2037 75.8835 61.2619 75.829 61.3345 75.8169Z" fill="#F6A623"/>
<path d="M59.4323 77.9671L59.6416 76.8772C59.6626 76.7679 59.7528 76.6852 59.8636 76.674L64.9937 76.1534C65.1663 76.1359 65.3046 76.2941 65.264 76.4629L64.9379 77.821C64.9118 77.9297 64.8172 78.0082 64.7056 78.0138L59.6924 78.2662C59.5293 78.2744 59.4016 78.1275 59.4323 77.9671Z" fill="#F6A623"/>
<path d="M53.4151 86.8744C53.4151 86.8744 52.9271 84.8677 53.1239 84.1558C53.3208 83.4439 53.7022 82.5286 54.9735 82.7319C56.2448 82.9354 57.7444 83.4709 57.7444 83.4709C57.7444 83.4709 57.6687 84.3982 56.7025 84.0991L57.3016 84.5626C57.3016 84.5626 57.216 85.3052 56.3998 84.9085L56.9571 85.5233C56.9571 85.5233 56.6066 86.1331 56.0061 85.742C55.4057 85.3509 55.1179 87.1161 53.4151 86.8744Z" fill="url(#paint8_linear_271_657)"/>
<path d="M52.6708 67.1606L50.7233 72.7929C50.691 72.8862 50.7294 72.9895 50.8158 73.0373C51.3467 73.3308 53.2594 74.1792 55.5643 72.7178C55.8044 72.5656 55.9679 72.3173 56.0044 72.0353L56.6351 67.1606H52.6708Z" fill="url(#paint9_linear_271_657)"/>
<path d="M56.909 61.9451C56.909 61.9451 59.0477 65.9708 58.7735 67.597C58.4994 69.2232 55.8489 69.1065 53.5343 67.7857L51.917 63.4388L56.909 61.9451Z" fill="url(#paint10_linear_271_657)"/>
<path d="M53.6362 65.6508C53.7303 65.6092 53.765 65.4941 53.7087 65.408C53.5374 65.1463 53.2162 64.6123 53.1137 64.1447C53.1137 64.1447 52.7292 63.8985 54.0923 63.5723C55.4553 63.246 57.4878 62.7396 57.915 61.5794C58.3316 60.4483 57.2372 57.6037 55.4911 59.8702C55.4246 59.9565 55.2945 59.9584 55.2281 59.8721C54.9419 59.4995 54.1894 58.7262 53.1446 59.1951C52.1668 59.6337 52.0567 60.3502 52.0701 60.7113C52.0741 60.8175 51.9791 60.9001 51.8747 60.8802C51.3803 60.7859 50.1941 60.7049 49.6404 61.9218C49.1844 62.9242 49.4808 63.4916 49.7508 63.7691C49.8382 63.8589 49.7999 64.007 49.68 64.0437C49.355 64.1432 48.9355 64.4186 48.9775 65.1798C49.0356 66.2321 50.2121 66.1394 50.5471 66.0914C50.602 66.0836 50.6572 66.1024 50.6944 66.1435C50.9816 66.4613 52.2756 67.8109 53.6761 67.9736C53.7974 67.9876 53.8914 67.8678 53.8517 67.7524L53.2456 65.9906C53.2174 65.9088 53.2566 65.819 53.3357 65.784L53.6362 65.6508Z" fill="black"/>
<path d="M53.8801 65.9009C53.8801 65.9009 52.3574 64.8561 52.2462 65.736C52.1349 66.6158 53.6174 67.0103 54.3517 66.6823L53.8801 65.9009Z" fill="url(#paint11_linear_271_657)"/>
<defs>
<linearGradient id="paint0_linear_271_657" x1="64.0444" y1="127.948" x2="37.957" y2="156.324" gradientUnits="userSpaceOnUse">
<stop/>
<stop offset="1"/>
</linearGradient>
<linearGradient id="paint1_linear_271_657" x1="55.5772" y1="130.055" x2="57.8944" y2="130.055" gradientUnits="userSpaceOnUse">
<stop stop-color="#FEBBBA"/>
<stop offset="1" stop-color="#FF928E"/>
</linearGradient>
<linearGradient id="paint2_linear_271_657" x1="58.1923" y1="122.568" x2="32.105" y2="150.944" gradientUnits="userSpaceOnUse">
<stop/>
<stop offset="1"/>
</linearGradient>
<linearGradient id="paint3_linear_271_657" x1="47.2256" y1="129.937" x2="49.2263" y2="129.937" gradientUnits="userSpaceOnUse">
<stop stop-color="#FEBBBA"/>
<stop offset="1" stop-color="#FF928E"/>
</linearGradient>
<linearGradient id="paint4_linear_271_657" x1="65.1123" y1="69.6025" x2="76.9505" y2="69.6025" gradientUnits="userSpaceOnUse">
<stop stop-color="#FEBBBA"/>
<stop offset="1" stop-color="#FF928E"/>
</linearGradient>
<linearGradient id="paint5_linear_271_657" x1="74.313" y1="67.6182" x2="66.3693" y2="85.6919" gradientUnits="userSpaceOnUse">
<stop stop-color="#FEBBBA"/>
<stop offset="1" stop-color="#FF928E"/>
</linearGradient>
<linearGradient id="paint6_linear_271_657" x1="76.893" y1="61.599" x2="80.2076" y2="56.5028" gradientUnits="userSpaceOnUse">
<stop stop-color="#FEBBBA"/>
<stop offset="1" stop-color="#FF928E"/>
</linearGradient>
<linearGradient id="paint7_linear_271_657" x1="39.208" y1="86.3709" x2="54.1894" y2="86.3709" gradientUnits="userSpaceOnUse">
<stop stop-color="#FEBBBA"/>
<stop offset="1" stop-color="#FF928E"/>
</linearGradient>
<linearGradient id="paint8_linear_271_657" x1="53.0772" y1="84.8002" x2="57.7444" y2="84.8002" gradientUnits="userSpaceOnUse">
<stop stop-color="#FEBBBA"/>
<stop offset="1" stop-color="#FF928E"/>
</linearGradient>
<linearGradient id="paint9_linear_271_657" x1="50.7119" y1="70.3551" x2="56.6351" y2="70.3551" gradientUnits="userSpaceOnUse">
<stop stop-color="#FEBBBA"/>
<stop offset="1" stop-color="#FF928E"/>
</linearGradient>
<linearGradient id="paint10_linear_271_657" x1="58.0443" y1="66.587" x2="51.5318" y2="62.6148" gradientUnits="userSpaceOnUse">
<stop stop-color="#FEBBBA"/>
<stop offset="1" stop-color="#FF928E"/>
</linearGradient>
<linearGradient id="paint11_linear_271_657" x1="56.3336" y1="68.0682" x2="50.4742" y2="64.4943" gradientUnits="userSpaceOnUse">
<stop stop-color="#FEBBBA"/>
<stop offset="1" stop-color="#FF928E"/>
</linearGradient>
</defs>
</svg>
