<svg width="24" height="24" viewBox="0 0 24 24" fill="none" xmlns="http://www.w3.org/2000/svg">
<path d="M17.7596 22.0799H11.9996C11.6017 22.0799 11.2796 21.7578 11.2796 21.3599C11.2796 20.962 11.6017 20.6399 11.9996 20.6399H17.7596C18.9508 20.6399 19.9196 19.671 19.9196 18.4799V5.51992C19.9196 4.3288 18.9508 3.35992 17.7596 3.35992H11.9996C11.6017 3.35992 11.2796 3.03784 11.2796 2.63992C11.2796 2.242 11.6017 1.91992 11.9996 1.91992H17.7596C19.7447 1.91992 21.3596 3.53488 21.3596 5.51992V18.4799C21.3596 20.465 19.7447 22.0799 17.7596 22.0799ZM15.3887 11.4909L11.7887 7.89088C11.5074 7.6096 11.0519 7.6096 10.7706 7.89088C10.4893 8.17216 10.4893 8.62768 10.7706 8.90896L13.1416 11.2799H3.35965C2.96173 11.2799 2.63965 11.602 2.63965 11.9999C2.63965 12.3978 2.96173 12.7199 3.35965 12.7199H13.1416L10.7706 15.0909C10.6697 15.1915 10.601 15.3198 10.5731 15.4595C10.5452 15.5992 10.5594 15.7441 10.6139 15.8757C10.6684 16.0074 10.7608 16.1199 10.8793 16.1989C10.9978 16.278 11.1372 16.3201 11.2796 16.3199C11.3742 16.32 11.4679 16.3015 11.5552 16.2652C11.6426 16.229 11.7219 16.1759 11.7887 16.109L15.3887 12.509C15.4556 12.4421 15.5086 12.3628 15.5449 12.2754C15.5811 12.1881 15.5997 12.0945 15.5997 11.9999C15.5997 11.9054 15.5811 11.8117 15.5449 11.7244C15.5086 11.6371 15.4556 11.5577 15.3887 11.4909Z" fill="#102C41"/>
</svg>
