<svg width="19" height="21" viewBox="0 0 19 21" fill="none" xmlns="http://www.w3.org/2000/svg">
<path d="M15.12 20.16H9.36C8.96208 20.16 8.64 19.8379 8.64 19.44C8.64 19.0421 8.96208 18.72 9.36 18.72H15.12C16.3111 18.72 17.28 17.7511 17.28 16.56V3.6C17.28 2.40888 16.3111 1.44 15.12 1.44H9.36C8.96208 1.44 8.64 1.11792 8.64 0.72C8.64 0.32208 8.96208 0 9.36 0H15.12C17.105 0 18.72 1.61496 18.72 3.6V16.56C18.72 18.545 17.105 20.16 15.12 20.16ZM12.749 9.57096L9.14904 5.97096C8.86776 5.68968 8.41224 5.68968 8.13096 5.97096C7.84968 6.25224 7.84968 6.70776 8.13096 6.98904L10.5019 9.36H0.72C0.32208 9.36 0 9.68208 0 10.08C0 10.4779 0.32208 10.8 0.72 10.8H10.5019L8.13096 13.171C8.03006 13.2716 7.9613 13.3999 7.9334 13.5396C7.9055 13.6793 7.91971 13.8242 7.97423 13.9558C8.02876 14.0874 8.12113 14.1999 8.23966 14.279C8.35818 14.3581 8.49752 14.4002 8.64 14.4C8.73456 14.4001 8.82822 14.3815 8.91558 14.3453C9.00293 14.3091 9.08228 14.256 9.14904 14.189L12.749 10.589C12.8159 10.5222 12.869 10.4429 12.9052 10.3555C12.9414 10.2682 12.96 10.1746 12.96 10.08C12.96 9.98545 12.9414 9.89182 12.9052 9.80448C12.869 9.71714 12.8159 9.63778 12.749 9.57096Z" fill="white"/>
</svg>
