<svg width="41" height="39" viewBox="0 0 41 39" fill="none" xmlns="http://www.w3.org/2000/svg">
<path d="M35.9375 9.705H22.6838L30.4463 2.49594C31.0284 1.95688 31.0644 1.04406 30.5181 0.461876C29.9791 -0.120312 29.0662 -0.156249 28.4841 0.390001L20.125 8.1525L11.7588 0.382814C11.1766 -0.156249 10.2709 -0.120311 9.72469 0.454688C9.18563 1.03688 9.22156 1.94969 9.79656 2.48875L17.5662 9.69781H4.3125C1.93344 9.69781 0 11.6312 0 14.0103V34.1353C0 36.5144 1.93344 38.4478 4.3125 38.4478H35.9375C38.3166 38.4478 40.25 36.5144 40.25 34.1353V14.0103C40.25 11.6384 38.3166 9.705 35.9375 9.705ZM37.375 34.1425C37.375 34.9331 36.7281 35.58 35.9375 35.58H4.3125C3.52187 35.58 2.875 34.9331 2.875 34.1425V14.0175C2.875 13.2269 3.52187 12.58 4.3125 12.58H35.9375C36.7281 12.58 37.375 13.2269 37.375 14.0175V34.1425Z" fill="#F6A623"/>
<path d="M25.1631 22.4411L16.5381 17.4098C16.0925 17.1511 15.5462 17.1511 15.1006 17.4026C14.655 17.6614 14.3818 18.1358 14.3818 18.6461V28.7086C14.3818 29.2261 14.655 29.7004 15.1006 29.952C15.3203 30.0787 15.5694 30.1453 15.8229 30.1453C16.0765 30.1453 16.3256 30.0787 16.5453 29.952L25.1703 24.9208C25.6087 24.662 25.8818 24.1876 25.8818 23.6773C25.8818 23.167 25.6015 22.6998 25.1631 22.4411ZM17.2496 26.2073V21.1473L21.5837 23.6773L17.2496 26.2073Z" fill="#F6A623"/>
</svg>
