<svg width="34" height="34" viewBox="0 0 34 34" fill="none" xmlns="http://www.w3.org/2000/svg">
<path d="M31.0534 9.37833C30.9097 9.03217 30.6346 8.75709 30.2884 8.61333C30.1181 8.54074 29.9352 8.50224 29.7501 8.5H22.6667C22.291 8.5 21.9307 8.64926 21.665 8.91493C21.3993 9.18061 21.2501 9.54094 21.2501 9.91667C21.2501 10.2924 21.3993 10.6527 21.665 10.9184C21.9307 11.1841 22.291 11.3333 22.6667 11.3333H26.3359L18.4167 19.2525L13.7559 14.5775C13.6242 14.4447 13.4675 14.3393 13.2949 14.2674C13.1223 14.1955 12.9371 14.1585 12.7501 14.1585C12.5631 14.1585 12.3779 14.1955 12.2053 14.2674C12.0326 14.3393 11.8759 14.4447 11.7442 14.5775L3.24424 23.0775C3.11146 23.2092 3.00607 23.3659 2.93415 23.5385C2.86222 23.7112 2.8252 23.8963 2.8252 24.0833C2.8252 24.2704 2.86222 24.4555 2.93415 24.6282C3.00607 24.8008 3.11146 24.9575 3.24424 25.0892C3.37594 25.2219 3.53263 25.3273 3.70526 25.3993C3.87789 25.4712 4.06306 25.5082 4.25008 25.5082C4.43709 25.5082 4.62226 25.4712 4.79489 25.3993C4.96753 25.3273 5.12421 25.2219 5.25591 25.0892L12.7501 17.5808L17.4109 22.2558C17.5426 22.3886 17.6993 22.494 17.8719 22.5659C18.0446 22.6379 18.2297 22.6749 18.4167 22.6749C18.6038 22.6749 18.7889 22.6379 18.9616 22.5659C19.1342 22.494 19.2909 22.3886 19.4226 22.2558L28.3334 13.3308V17C28.3334 17.3757 28.4827 17.7361 28.7483 18.0017C29.014 18.2674 29.3744 18.4167 29.7501 18.4167C30.1258 18.4167 30.4861 18.2674 30.7518 18.0017C31.0175 17.7361 31.1667 17.3757 31.1667 17V9.91667C31.1645 9.73154 31.126 9.54865 31.0534 9.37833Z" fill="white"/>
</svg>
