<svg width="34" height="34" viewBox="0 0 34 34" fill="none" xmlns="http://www.w3.org/2000/svg">
<g clip-path="url(#clip0_307_461)">
<path d="M7.72397 23.7437C4.92606 21.567 3.93651 18.1975 2.8896 14.6303C2.49931 13.3015 2.09697 11.9315 1.59193 10.6374C4.36081 10.7267 6.81872 11.1644 8.90477 11.94C8.99197 11.9725 9.08471 11.9874 9.17768 11.984C9.27065 11.9805 9.36204 11.9588 9.44663 11.9201C9.53122 11.8814 9.60734 11.8263 9.67067 11.7582C9.73399 11.69 9.78326 11.61 9.81568 11.5228C9.8481 11.4356 9.86302 11.3429 9.8596 11.2499C9.85618 11.157 9.83448 11.0656 9.79573 10.981C9.75699 10.8964 9.70197 10.8203 9.63381 10.7569C9.56565 10.6936 9.48568 10.6443 9.39847 10.6119C7.02768 9.73005 4.22906 9.25759 1.06918 9.20801C0.710056 9.20801 0.376431 9.38722 0.178097 9.68826C-0.0195276 9.98717 -0.0549442 10.3612 0.0831808 10.6863C0.654806 12.0498 1.09964 13.5643 1.5296 15.0298C2.59351 18.6558 3.69497 22.4043 6.85343 24.8615C6.92678 24.9188 7.01074 24.9612 7.1005 24.986C7.19025 25.0108 7.28403 25.0177 7.37644 25.0062C7.46886 24.9947 7.55808 24.965 7.63899 24.9189C7.71991 24.8728 7.79091 24.8111 7.84793 24.7375C7.96323 24.5893 8.01495 24.4013 7.9917 24.2149C7.96846 24.0286 7.87216 23.8591 7.72397 23.7437Z" fill="white"/>
<path d="M5.82902 13.8436C5.7698 13.9153 5.72529 13.998 5.69804 14.087C5.6708 14.176 5.66135 14.2694 5.67023 14.362C5.67911 14.4547 5.70615 14.5446 5.7498 14.6268C5.79345 14.7089 5.85287 14.7817 5.92464 14.8409C6.29935 15.1497 6.68752 15.5025 7.11181 15.9183C7.1774 15.9868 7.25608 16.0414 7.34318 16.0789C7.43028 16.1164 7.52403 16.1361 7.61887 16.1367C7.71371 16.1373 7.8077 16.1189 7.89527 16.0825C7.98285 16.0461 8.06222 15.9924 8.12869 15.9248C8.19515 15.8571 8.24736 15.7768 8.2822 15.6886C8.31705 15.6004 8.33383 15.5061 8.33154 15.4113C8.32926 15.3165 8.30795 15.2231 8.2689 15.1367C8.22984 15.0503 8.17383 14.9726 8.10418 14.9082C7.69502 14.5031 7.26844 14.116 6.82564 13.7479C6.75389 13.6887 6.67116 13.6442 6.5822 13.617C6.49324 13.5897 6.39978 13.5803 6.30717 13.5891C6.21455 13.598 6.12459 13.6251 6.04243 13.6687C5.96027 13.7124 5.88751 13.7718 5.82831 13.8436H5.82902ZM33.8209 2.59806C33.7232 2.45059 33.5901 2.33003 33.4336 2.24748C33.2772 2.16492 33.1025 2.12301 32.9256 2.1256C23.4453 2.22902 16.3704 4.96106 12.4647 10.0271C9.14827 14.3295 8.2926 20.2115 9.98198 27.0441C9.22079 28.2864 8.49633 29.5508 7.80952 30.8358C7.73015 31.001 7.71782 31.1905 7.77511 31.3645C7.83241 31.5386 7.95489 31.6837 8.11686 31.7695C8.27883 31.8552 8.46771 31.8749 8.64389 31.8245C8.82007 31.774 8.96986 31.6573 9.06185 31.4988C9.7506 30.2104 10.4777 28.9428 11.2421 27.6979C26.6158 27.491 29.2281 18.6319 31.7462 10.054C32.3851 7.87798 33.0453 5.6276 33.913 3.60673C34.0554 3.27523 34.0207 2.89839 33.8209 2.59806ZM30.3876 9.65448C27.9595 17.9236 25.6553 25.7443 12.1367 26.2585C15.0643 21.6366 18.9006 16.3872 22.5443 12.5275C22.6732 12.3908 22.7426 12.2085 22.7372 12.0207C22.7317 11.8328 22.6519 11.6549 22.5152 11.5259C22.3786 11.3969 22.1963 11.3275 22.0084 11.333C21.8206 11.3384 21.6426 11.4183 21.5136 11.5549C17.8572 15.4274 14.011 20.6747 11.0509 25.3249C9.90052 19.5201 10.7647 14.5519 13.5867 10.8905C17.1446 6.27431 23.6429 3.74131 32.4007 3.54935C31.6039 5.50931 30.9855 7.61306 30.3869 9.65377L30.3876 9.65448Z" fill="white"/>
</g>
<defs>
<clipPath id="clip0_307_461">
<rect width="34" height="34" fill="white"/>
</clipPath>
</defs>
</svg>
