<svg width="34" height="39" viewBox="0 0 34 39" fill="none" xmlns="http://www.w3.org/2000/svg">
<path d="M17.4483 21.0618C17.377 21.0462 17.3035 21.0437 17.2314 21.0544C16.5066 20.9701 15.9598 20.3568 15.9585 19.6274C15.9585 19.4595 15.8918 19.2985 15.7731 19.1797C15.6544 19.061 15.4934 18.9943 15.3255 18.9943C15.1576 18.9943 14.9966 19.061 14.8779 19.1797C14.7592 19.2985 14.6925 19.4595 14.6925 19.6274C14.6944 20.8454 15.5091 21.9125 16.6836 22.2348V22.8678C16.6836 23.0357 16.7503 23.1967 16.869 23.3154C16.9878 23.4342 17.1488 23.5008 17.3167 23.5008C17.4845 23.5008 17.6455 23.4342 17.7643 23.3154C17.883 23.1967 17.9497 23.0357 17.9497 22.8678V22.2731C19.3053 21.9894 20.2267 20.7267 20.0843 19.3491C19.9414 17.9715 18.7808 16.9247 17.3958 16.9244C16.6021 16.9244 15.9585 16.2808 15.9585 15.4871C15.9585 14.6934 16.6021 14.0499 17.3958 14.0499C18.1895 14.0499 18.833 14.6933 18.833 15.4871C18.833 15.655 18.8997 15.816 19.0184 15.9347C19.1372 16.0534 19.2982 16.1201 19.4661 16.1201C19.6339 16.1201 19.7949 16.0534 19.9137 15.9347C20.0324 15.816 20.0991 15.655 20.0991 15.4871C20.0972 14.2081 19.2012 13.1049 17.9497 12.841V12.2648C17.9497 12.097 17.883 11.936 17.7643 11.8172C17.6455 11.6985 17.4845 11.6318 17.3167 11.6318C17.1488 11.6318 16.9878 11.6985 16.869 11.8172C16.7503 11.936 16.6836 12.097 16.6836 12.2648V12.8797C15.3774 13.2363 14.5367 14.5045 14.7165 15.8466C14.8964 17.1887 16.0417 18.1903 17.3958 18.1901C18.1791 18.1901 18.8179 18.8173 18.8321 19.6001C18.8466 20.3831 18.231 21.0334 17.4483 21.0618Z" fill="white"/>
<path d="M8.21582 17.6056C8.21582 22.6752 12.3255 26.7849 17.3952 26.7849C22.4648 26.7849 26.5745 22.6752 26.5745 17.6056C26.5745 12.536 22.4648 8.42627 17.3952 8.42627C12.328 8.43181 8.22175 12.5384 8.21582 17.6056ZM17.3952 9.6923C21.7656 9.6923 25.3085 13.2351 25.3085 17.6056C25.3085 21.9761 21.7656 25.5189 17.3952 25.5189C13.0247 25.5189 9.48185 21.9761 9.48185 17.6056C9.48683 13.2373 13.0268 9.69728 17.3952 9.6923Z" fill="white"/>
<path d="M29.6953 28.3456L24.7366 30.6885C24.4002 30.0628 23.9048 29.5369 23.3002 29.1639C22.6957 28.7909 22.0035 28.5839 21.2934 28.5638L16.7158 28.438C15.9908 28.4172 15.2797 28.2336 14.6353 27.9008L14.1695 27.6595C12.9945 27.047 11.6886 26.7278 10.3635 26.7292C9.03839 26.7306 7.73326 27.0525 6.55945 27.6674L6.58849 26.6122C6.5908 26.5291 6.57671 26.4463 6.54704 26.3687C6.51736 26.291 6.47267 26.22 6.41552 26.1596C6.35838 26.0992 6.2899 26.0506 6.21399 26.0167C6.13808 25.9828 6.05624 25.9642 5.97313 25.9619L0.953485 25.8238C0.870387 25.8215 0.78765 25.8356 0.710002 25.8653C0.632355 25.895 0.561319 25.9397 0.500953 25.9968C0.440587 26.054 0.392075 26.1225 0.358188 26.1984C0.324301 26.2743 0.305704 26.3561 0.30346 26.4392L0.000245982 37.4544C-0.00207194 37.5375 0.0120106 37.6203 0.0416891 37.698C0.0713676 37.7756 0.11606 37.8467 0.173214 37.9071C0.230368 37.9675 0.298862 38.0161 0.374785 38.05C0.450707 38.0839 0.532569 38.1025 0.615694 38.1048L5.63525 38.243H5.65258C5.81752 38.243 5.97597 38.1787 6.0942 38.0637C6.21243 37.9487 6.2811 37.7921 6.2856 37.6272L6.30008 37.1002L7.60408 36.402C8.11573 36.1266 8.71447 36.061 9.27358 36.2193L17.0608 38.4049C17.0744 38.4089 17.0879 38.412 17.1019 38.4151C17.6647 38.5328 18.2382 38.592 18.8133 38.5916C20.0311 38.5923 21.2347 38.3297 22.3415 37.8217C22.3687 37.8093 22.395 37.7948 22.42 37.7783L33.7108 30.4753C33.8462 30.3876 33.9432 30.2515 33.9817 30.0948C34.0202 29.938 33.9975 29.7725 33.9181 29.632C33.0799 28.1447 31.2206 27.5781 29.6953 28.3456ZM1.28329 36.8567L1.55153 27.1068L5.30545 27.21L5.03721 36.9602L1.28329 36.8567ZM21.7712 36.691C20.3961 37.3116 18.8603 37.483 17.3822 37.1809L9.61604 35.0009C8.74218 34.7539 7.80653 34.8562 7.00668 35.2862L6.34027 35.6432L6.51862 29.1606C7.55538 28.4711 8.75817 28.0724 10.0015 28.006C11.2449 27.9397 12.4833 28.2082 13.5875 28.7836L14.0533 29.0249C14.8673 29.4452 15.7654 29.6772 16.6811 29.7038L21.2591 29.8296C22.5449 29.8666 23.6369 30.7821 23.8978 32.042L17.079 31.8537C16.7294 31.8442 16.4385 32.1199 16.4286 32.4692C16.424 32.637 16.4863 32.7998 16.6017 32.9218C16.7171 33.0437 16.8762 33.1149 17.0441 33.1195L24.5691 33.3266H24.5867C24.7516 33.3265 24.9099 33.2621 25.0279 33.1471C25.146 33.0321 25.2146 32.8756 25.2191 32.7108C25.2269 32.4357 25.2064 32.1606 25.1579 31.8896L30.244 29.4864C30.249 29.4843 30.2539 29.4818 30.2589 29.4793C30.6111 29.3011 31.0095 29.2349 31.4004 29.2896C31.7914 29.3444 32.1562 29.5175 32.4459 29.7857L21.7712 36.691ZM18.0285 6.64664V0.633014C18.0285 0.465128 17.9618 0.304119 17.8431 0.185405C17.7244 0.0666923 17.5633 0 17.3955 0C17.2276 0 17.0666 0.0666923 16.9479 0.185405C16.8291 0.304119 16.7624 0.465128 16.7624 0.633014V6.64664C16.7624 6.81453 16.8291 6.97554 16.9479 7.09425C17.0666 7.21296 17.2276 7.27966 17.3955 7.27966C17.5633 7.27966 17.7244 7.21296 17.8431 7.09425C17.9618 6.97554 18.0285 6.81453 18.0285 6.64664ZM22.7761 6.64664V3.79808C22.7761 3.6302 22.7094 3.46919 22.5907 3.35047C22.472 3.23176 22.3109 3.16507 22.1431 3.16507C21.9752 3.16507 21.8142 3.23176 21.6955 3.35047C21.5767 3.46919 21.51 3.6302 21.51 3.79808V6.64664C21.51 6.81453 21.5767 6.97554 21.6955 7.09425C21.8142 7.21296 21.9752 7.27966 22.1431 7.27966C22.3109 7.27966 22.472 7.21296 22.5907 7.09425C22.7094 6.97554 22.7761 6.81453 22.7761 6.64664ZM13.2809 6.64664V3.79808C13.2809 3.6302 13.2142 3.46919 13.0955 3.35047C12.9768 3.23176 12.8157 3.16507 12.6479 3.16507C12.48 3.16507 12.319 3.23176 12.2003 3.35047C12.0815 3.46919 12.0148 3.6302 12.0148 3.79808V6.64664C12.0148 6.81453 12.0815 6.97554 12.2003 7.09425C12.319 7.21296 12.48 7.27966 12.6479 7.27966C12.8157 7.27966 12.9768 7.21296 13.0955 7.09425C13.2142 6.97554 13.2809 6.81453 13.2809 6.64664Z" fill="white"/>
</svg>
