<svg width="19" height="18" viewBox="0 0 19 18" fill="none" xmlns="http://www.w3.org/2000/svg">
<path d="M12.5441 5.2725L17.6066 6.0475C18.0516 6.1175 18.3557 6.36333 18.5191 6.785C18.6374 7.23 18.5441 7.61667 18.2391 7.945L14.5816 11.5325L15.4266 16.7C15.4966 17.145 15.3441 17.5083 14.9691 17.79C14.5941 18.0467 14.2074 18.07 13.8091 17.86L9.27405 15.47L4.77405 17.86C4.35238 18.07 3.95405 18.0467 3.57905 17.79C3.22738 17.5083 3.07488 17.145 3.12155 16.7L4.00155 11.5325L0.344051 7.945C0.0157181 7.61667 -0.0776153 7.23 0.0640514 6.785C0.204051 6.36333 0.496551 6.1175 0.941551 6.0475L6.00405 5.2725L8.25405 0.6325C8.48905 0.234167 8.82905 0.0233333 9.27405 0C9.74238 0.0233333 10.0824 0.234167 10.2941 0.6325L12.5441 5.2725Z" fill="#DDDDDD"/>
</svg>
