<svg width="24" height="24" viewBox="0 0 24 24" fill="none" xmlns="http://www.w3.org/2000/svg">
<path d="M16.7043 6.49922C16.7043 6.63047 16.6996 6.76172 16.6902 6.89297C16.6855 6.9586 16.6785 7.02188 16.6714 7.0875C16.6668 7.12735 16.6808 7.21172 16.6714 7.08985C16.6738 7.12969 16.6597 7.17891 16.6527 7.21641C16.6105 7.47657 16.5472 7.73438 16.4652 7.98516C16.4254 8.10469 16.3808 8.22188 16.3363 8.33672C16.2965 8.4375 16.3808 8.24063 16.334 8.33907C16.3222 8.36719 16.3082 8.39532 16.2964 8.42344C16.266 8.48907 16.2355 8.55469 16.2004 8.61797C16.0879 8.83829 15.959 9.04922 15.816 9.25079C15.7855 9.29532 15.7504 9.36563 15.7058 9.39844C15.7879 9.33516 15.7316 9.36563 15.7035 9.40079C15.6847 9.42422 15.666 9.44766 15.6449 9.4711C15.5605 9.57422 15.4714 9.67266 15.3777 9.76641C15.2933 9.85547 15.2043 9.93985 15.1129 10.0219C15.066 10.0617 15.0215 10.1039 14.9746 10.1414C14.9511 10.1602 14.9277 10.1813 14.9043 10.2C14.8879 10.2117 14.8715 10.2258 14.855 10.2375C14.9089 10.1953 14.916 10.1906 14.8761 10.2211C14.6769 10.3688 14.473 10.5047 14.2574 10.6219C14.1496 10.6828 14.0394 10.7367 13.9269 10.7906C13.8988 10.8047 13.8707 10.8164 13.8425 10.8281C13.7418 10.8727 13.941 10.7883 13.8402 10.8305C13.7722 10.8586 13.7043 10.8844 13.6363 10.9102C13.3879 10.9992 13.1347 11.0695 12.8769 11.1211C12.8136 11.1328 12.7504 11.1445 12.6871 11.1539C12.6589 11.1586 12.6215 11.1703 12.591 11.168C12.6847 11.175 12.6566 11.1586 12.6191 11.1633C12.4785 11.1773 12.3379 11.1914 12.1972 11.1961C11.923 11.2055 11.6535 11.1914 11.3816 11.1633C11.2691 11.1516 11.4894 11.1797 11.3793 11.1633C11.3465 11.1586 11.316 11.1539 11.2832 11.1492C11.2199 11.1398 11.1566 11.1281 11.0957 11.1141C10.9621 11.0859 10.8285 11.0531 10.6949 11.0156C10.5754 10.9805 10.4558 10.943 10.3363 10.8984C10.2871 10.8797 10.2379 10.8609 10.191 10.8422C10.1816 10.8375 10.1722 10.8352 10.1629 10.8305C10.116 10.8117 10.1254 10.8141 10.1886 10.8422C10.1582 10.8422 10.1019 10.8047 10.0761 10.7906C9.84176 10.6828 9.61676 10.5586 9.40114 10.4156C9.34958 10.3828 9.29801 10.3477 9.24879 10.3125C9.20426 10.282 9.13395 10.2469 9.10114 10.2023C9.16442 10.2844 9.13395 10.2281 9.09879 10.2C9.07536 10.1813 9.05192 10.1625 9.02848 10.1414C8.97458 10.0945 8.91833 10.0477 8.86676 10.0008C8.68395 9.83672 8.5152 9.6586 8.35817 9.4711C8.33942 9.44766 8.31833 9.42422 8.29958 9.40079C8.27145 9.36563 8.21286 9.33516 8.29723 9.39844C8.25504 9.36563 8.21989 9.29297 8.18708 9.25079C8.10973 9.14297 8.03708 9.03047 7.96911 8.91563C7.90583 8.81016 7.84489 8.70235 7.79098 8.58985C7.76286 8.5336 7.73708 8.47969 7.70895 8.42344C7.69489 8.39532 7.68317 8.36719 7.67145 8.33907C7.65036 8.29219 7.65504 8.30157 7.68083 8.36485C7.67379 8.3461 7.66442 8.32735 7.65739 8.30625C7.56364 8.07422 7.48629 7.83282 7.4277 7.58907C7.39723 7.46485 7.37145 7.34063 7.3527 7.21407C7.34801 7.18125 7.34333 7.15079 7.33864 7.11797C7.32223 7.00547 7.35036 7.22813 7.33864 7.11563C7.33161 7.04063 7.32223 6.96563 7.31754 6.89063C7.29645 6.61875 7.29879 6.34454 7.31989 6.07266C7.32458 6.00704 7.33161 5.94375 7.33864 5.87813C7.35036 5.76563 7.32223 5.98594 7.33864 5.87579C7.34333 5.84297 7.34801 5.8125 7.3527 5.77969C7.37614 5.64375 7.40192 5.50782 7.43708 5.37422C7.49801 5.13047 7.5777 4.89141 7.67145 4.65938C7.71129 4.5586 7.62692 4.75547 7.67379 4.65704C7.68551 4.62891 7.69958 4.60079 7.71129 4.57266C7.73708 4.51641 7.7652 4.46016 7.79333 4.40625C7.85426 4.28672 7.91989 4.16954 7.98786 4.05469C8.05114 3.94922 8.11911 3.8461 8.19176 3.74532C8.22223 3.70079 8.25739 3.63047 8.30192 3.59766C8.21989 3.66094 8.27614 3.63047 8.30426 3.59532C8.33004 3.5625 8.35583 3.53204 8.38161 3.50157C8.53864 3.31407 8.71208 3.13829 8.89489 2.97422C8.94176 2.93438 8.98629 2.89219 9.03317 2.85469C9.05661 2.83594 9.08004 2.81485 9.10348 2.7961C9.13864 2.76797 9.16911 2.70938 9.10583 2.79375C9.13864 2.75157 9.21129 2.71641 9.25348 2.6836C9.31208 2.64141 9.37067 2.60157 9.43161 2.56172C9.64723 2.4211 9.87458 2.29688 10.109 2.19141C10.1277 2.18204 10.1722 2.15391 10.1933 2.15391C10.1746 2.16094 10.1558 2.17032 10.1394 2.17735C10.1582 2.17032 10.1769 2.16094 10.198 2.15391C10.2472 2.13516 10.2941 2.11641 10.3433 2.09766C10.4699 2.05079 10.6011 2.0086 10.7324 1.9711C10.8543 1.93594 10.9785 1.90782 11.1027 1.88204C11.166 1.87032 11.2293 1.8586 11.2902 1.84688C11.323 1.84219 11.3535 1.8375 11.3863 1.83282C11.4379 1.82579 11.4285 1.82579 11.3582 1.8375L11.4215 1.83047C11.6933 1.8 11.9652 1.79063 12.2394 1.80235C12.3636 1.80704 12.4879 1.81875 12.6121 1.83282C12.6543 1.8375 12.7082 1.82344 12.6004 1.83047C12.6285 1.82813 12.666 1.83985 12.6965 1.84454C12.7691 1.85625 12.8441 1.87032 12.9168 1.88438C13.1746 1.93594 13.4277 2.0086 13.6738 2.1C13.7324 2.1211 13.791 2.14454 13.8472 2.16797C13.948 2.20782 13.7511 2.12344 13.8496 2.17032C13.8777 2.18204 13.9058 2.1961 13.934 2.20782C14.0558 2.26407 14.1754 2.325 14.2925 2.39063C14.4004 2.45157 14.5058 2.51485 14.609 2.58282C14.6511 2.61094 14.6933 2.63907 14.7355 2.66954C14.7871 2.70469 14.8714 2.74688 14.9089 2.7961C14.8457 2.71407 14.8761 2.77032 14.9113 2.79844C14.9347 2.81719 14.9582 2.83594 14.9816 2.85704C15.0285 2.89688 15.0754 2.93672 15.1199 2.97657C15.2183 3.06563 15.3144 3.15704 15.4058 3.25313C15.4902 3.34219 15.5722 3.4336 15.6519 3.52735C15.6707 3.55079 15.6918 3.57422 15.7105 3.59766C15.7386 3.63282 15.7972 3.66329 15.7129 3.6C15.7621 3.6375 15.8043 3.72188 15.8394 3.77344C15.98 3.975 16.109 4.18829 16.2191 4.4086C16.2472 4.46485 16.273 4.51875 16.3011 4.575C16.3152 4.60313 16.3269 4.63125 16.3386 4.65938C16.3832 4.76016 16.2988 4.56094 16.341 4.66172C16.3902 4.78829 16.4394 4.91485 16.4793 5.04375C16.5589 5.29454 16.6222 5.55235 16.6621 5.81485C16.6668 5.84297 16.6785 5.88047 16.6761 5.91094C16.6855 5.79141 16.6715 5.87579 16.6761 5.91329C16.6832 5.97891 16.6902 6.04219 16.6949 6.10782C16.6972 6.23672 16.7019 6.36797 16.7043 6.49922C16.7043 6.74532 16.9199 6.97969 17.173 6.96797C17.4261 6.95625 17.6418 6.76172 17.6418 6.49922C17.6371 5.35079 17.2879 4.19766 16.6175 3.26016C15.9402 2.31329 15.0074 1.5961 13.9152 1.19297C12.8207 0.789848 11.5832 0.752348 10.4629 1.0711C9.38239 1.37813 8.38864 2.01797 7.67379 2.88516C6.92145 3.80157 6.47145 4.90782 6.3777 6.08907C6.28629 7.24219 6.57458 8.42813 7.17458 9.41719C7.75348 10.3711 8.62536 11.1633 9.64723 11.6227C10.7441 12.1172 11.9558 12.2578 13.1394 12.0234C14.2457 11.8031 15.284 11.2242 16.0644 10.4109C16.8472 9.59532 17.391 8.53829 17.5644 7.41797C17.6113 7.11329 17.6418 6.80625 17.6418 6.49922C17.6418 6.25313 17.4261 6.01875 17.173 6.03047C16.9175 6.04219 16.7043 6.23672 16.7043 6.49922ZM19.723 22.2047H4.28004C4.25895 22.2047 4.23551 22.2047 4.21442 22.2023C4.21911 22.2023 4.15114 22.2 4.15114 22.1977C4.14879 22.193 4.27301 22.2211 4.18161 22.2C4.14176 22.1906 4.09958 22.1813 4.05973 22.1695C4.04567 22.1648 4.02926 22.1555 4.0152 22.1555C3.95661 22.1461 4.09254 22.2 4.04098 22.1672C4.01051 22.1484 3.9777 22.1344 3.94723 22.118C3.91676 22.0992 3.88864 22.0781 3.85817 22.0594C3.81364 22.0336 3.89567 22.0828 3.89333 22.0875C3.89098 22.0898 3.84176 22.043 3.83708 22.0383C3.81129 22.0148 3.78786 21.9867 3.76442 21.9609C3.70817 21.9047 3.80895 22.0359 3.75504 21.9469C3.73629 21.9164 3.71754 21.8883 3.69879 21.8555C3.68942 21.8367 3.68004 21.818 3.67067 21.8016C3.63551 21.7336 3.68239 21.8297 3.68239 21.8297C3.66129 21.832 3.63551 21.6398 3.62379 21.6188C3.65661 21.6797 3.63083 21.6984 3.62848 21.6492C3.62848 21.6281 3.62614 21.607 3.62379 21.5836V18.8789C3.62379 18.6422 3.66129 18.4102 3.66598 18.1758C3.66598 18.1758 3.65192 18.2742 3.65895 18.2203C3.66129 18.1992 3.66598 18.1781 3.66833 18.157C3.67301 18.1195 3.68004 18.082 3.68708 18.0469C3.70114 17.9672 3.7152 17.8898 3.73395 17.8125C3.76676 17.6625 3.80661 17.5148 3.85114 17.3695C3.89801 17.2195 3.95192 17.0742 4.01051 16.9289C4.04098 16.8516 3.97067 17.0203 4.01754 16.9125C4.03161 16.8797 4.04801 16.8469 4.06208 16.8141C4.09489 16.7438 4.13004 16.6734 4.1652 16.6055C4.30583 16.3359 4.46989 16.0828 4.65036 15.8367C4.69958 15.7711 4.59411 15.9047 4.66208 15.8227C4.68551 15.7945 4.70661 15.7664 4.73004 15.7383C4.77926 15.6797 4.82848 15.6211 4.88004 15.5648C4.98317 15.45 5.09098 15.3422 5.20348 15.2367C5.31129 15.1359 5.42614 15.0398 5.54098 14.9461C5.60426 14.8945 5.47067 14.9977 5.55504 14.9344C5.58317 14.9133 5.61364 14.8922 5.64176 14.8711C5.70739 14.8242 5.77536 14.7773 5.84567 14.7328C6.09645 14.5688 6.36129 14.4305 6.63317 14.3063C6.70817 14.2711 6.55114 14.3391 6.64958 14.2992C6.68239 14.2852 6.71754 14.2711 6.75036 14.2594C6.8277 14.2289 6.90739 14.2008 6.98708 14.175C7.13239 14.1281 7.2777 14.0859 7.4277 14.0508C7.5777 14.0156 7.73004 13.9852 7.88239 13.9617C7.89879 13.9594 7.92926 13.95 7.94567 13.9523C7.94801 13.9523 7.84723 13.9641 7.90114 13.9594C7.93864 13.9547 7.97614 13.95 8.01364 13.9477C8.10036 13.9383 8.18708 13.9313 8.27379 13.9266C8.45192 13.9172 8.63239 13.9195 8.81051 13.9195H15.4293C15.6613 13.9195 15.891 13.957 16.1207 13.9617C16.1207 13.9617 16.0222 13.9477 16.0761 13.9547C16.0972 13.957 16.1183 13.9617 16.1394 13.9641C16.1769 13.9688 16.2144 13.9758 16.2496 13.9828C16.3293 13.9969 16.4066 14.0109 16.4839 14.0297C16.634 14.0625 16.7816 14.1023 16.9269 14.1469C17.0769 14.1938 17.2222 14.2477 17.3675 14.3063C17.4449 14.3367 17.2761 14.2664 17.384 14.3133C17.4168 14.3273 17.4496 14.3438 17.4824 14.3578C17.5527 14.3906 17.623 14.4258 17.691 14.4609C17.9605 14.6016 18.2136 14.7656 18.4597 14.9461C18.5254 14.9953 18.3918 14.8898 18.4738 14.9578C18.5019 14.9813 18.53 15.0023 18.5582 15.0258C18.6168 15.075 18.6754 15.1242 18.7316 15.1758C18.8465 15.2789 18.9543 15.3867 19.0597 15.4992C19.1605 15.607 19.2566 15.7219 19.3504 15.8367C19.4019 15.9 19.2988 15.7664 19.3621 15.8508C19.3832 15.8789 19.4043 15.9094 19.4254 15.9375C19.4722 16.0031 19.5191 16.0711 19.5636 16.1414C19.7277 16.3922 19.866 16.657 19.9902 16.9289C20.0254 17.0039 19.9574 16.8469 19.9972 16.9453C20.0113 16.9781 20.0254 17.0133 20.0371 17.0461C20.0675 17.1234 20.0957 17.2031 20.1215 17.2828C20.1683 17.4281 20.2105 17.5734 20.2457 17.7234C20.2808 17.8734 20.3113 18.0258 20.3347 18.1781C20.3371 18.1945 20.3465 18.225 20.3441 18.2414C20.3441 18.2438 20.3324 18.143 20.3371 18.1969C20.3418 18.2344 20.3465 18.2719 20.3488 18.3094C20.3582 18.3961 20.3652 18.4828 20.3699 18.5695C20.3839 18.8461 20.3769 19.1227 20.3769 19.3992C20.3769 20.1141 20.384 20.8289 20.3769 21.5438V21.5859C20.3769 21.6023 20.3675 21.7289 20.3746 21.6516C20.3816 21.5742 20.3629 21.6938 20.3582 21.7125C20.3558 21.7219 20.3277 21.832 20.3207 21.8297C20.3136 21.8297 20.3675 21.743 20.3371 21.7875C20.33 21.7992 20.323 21.8156 20.316 21.8297C20.2972 21.8648 20.2761 21.9 20.255 21.9352C20.248 21.9469 20.2363 21.9586 20.2293 21.9727C20.2011 22.0242 20.2902 21.9094 20.2457 21.9492C20.2199 21.9727 20.1988 22.0031 20.173 22.0266C20.1613 22.0383 20.1496 22.0477 20.1402 22.057C20.1355 22.0594 20.1332 22.0641 20.1285 22.0664C20.098 22.0922 20.098 22.0922 20.1285 22.0688C20.1402 22.0406 20.1589 22.0477 20.1285 22.0688C20.1121 22.0805 20.0957 22.0922 20.0769 22.1016C20.0464 22.1203 20.016 22.1367 19.9832 22.1531C19.8918 22.2023 20.0464 22.1367 19.9668 22.1602C19.9316 22.1695 19.8988 22.1813 19.8613 22.1906C19.8449 22.1953 19.8308 22.1977 19.8144 22.2C19.723 22.2211 19.8472 22.193 19.8449 22.1977C19.8472 22.207 19.7371 22.2047 19.723 22.2047C19.4769 22.207 19.2425 22.418 19.2543 22.6734C19.266 22.9242 19.4605 23.1469 19.723 23.1422C20.5691 23.1305 21.2418 22.4813 21.3121 21.6445C21.3332 21.3867 21.3168 21.1219 21.3168 20.8641C21.3168 20.1516 21.3332 19.4391 21.3144 18.7266C21.2816 17.3695 20.7777 16.0711 19.9035 15.0375C19.0691 14.0484 17.8761 13.343 16.6058 13.0945C15.9847 12.9727 15.3683 12.9773 14.7402 12.9773H9.70817C9.26051 12.9773 8.81286 12.9656 8.3652 12.982C7.01286 13.0313 5.71911 13.5469 4.69489 14.4305C3.7152 15.2766 3.02145 16.4766 2.78708 17.7516C2.63473 18.5742 2.68161 19.4203 2.68161 20.2523V21.4031C2.68161 21.5063 2.68161 21.607 2.69333 21.7102C2.74254 22.1063 2.91598 22.4883 3.2277 22.7484C3.54176 23.0109 3.91442 23.1445 4.32458 23.1445H19.7207C19.9668 23.1445 20.2011 22.9289 20.1894 22.6758C20.18 22.418 19.9855 22.2047 19.723 22.2047Z" fill="black"/>
</svg>
