<svg width="34" height="34" viewBox="0 0 34 34" fill="none" xmlns="http://www.w3.org/2000/svg">
<g clip-path="url(#clip0_146_3392)">
<path d="M9.19253 17.6777C8.9804 17.4656 8.90969 17.2535 8.90969 16.9706C8.90969 16.4049 9.33395 15.9807 9.89964 15.9807L24.0418 15.9807C24.6075 15.9807 25.0317 16.4049 25.0317 16.9706C25.0317 17.5363 24.6075 17.9606 24.0418 17.9606L9.89963 17.9606C9.61679 17.9606 9.40466 17.8899 9.19253 17.6777Z" fill="white"/>
<path d="M16.9706 24.0416C16.5464 23.6174 16.5464 23.0517 16.9706 22.6274L22.6275 16.9706L16.9706 11.3137C16.5464 10.8894 16.5464 10.3238 16.9706 9.89949C17.3949 9.47523 17.9606 9.47523 18.3848 9.89949L24.7488 16.2635C25.1731 16.6877 25.1731 17.2534 24.7488 17.6777L18.3848 24.0416C17.9606 24.4659 17.3949 24.4659 16.9706 24.0416Z" fill="white"/>
</g>
<defs>
<clipPath id="clip0_146_3392">
<rect width="24" height="24" fill="white" transform="translate(16.9707) rotate(45)"/>
</clipPath>
</defs>
</svg>
